<svg id="Capa_1" data-name="Capa 1" xmlns="http://www.w3.org/2000/svg" viewBox="0 0 60.55 19.14">
  <defs>
    <style>
      .cls-1 {
        fill: #fff;
      }
    </style>
  </defs>
  <title>logo_cuaed</title>
  <g>
    <g>
      <circle class="cls-1" cx="10.38" cy="1.12" r="0.44"/>
      <path class="cls-1" d="M9.48,17.11A7.59,7.59,0,0,1,2,10.71H0a9.55,9.55,0,0,0,9.49,8.4v-2ZM9.48,0A9.55,9.55,0,0,0,0,8.22H2A7.59,7.59,0,0,1,9.48,2V0Z" transform="translate(0.01 0.03)"/>
      <circle class="cls-1" cx="1.15" cy="9.64" r="0.44"/>
      <circle class="cls-1" cx="10.38" cy="18.51" r="0.44"/>
      <path class="cls-1" d="M9.48,3.5a6,6,0,0,1,6,5.09h1.59A7.59,7.59,0,0,0,9.53,1.9V3.47Zm0,13.62A7.59,7.59,0,0,0,17,10.57H15.41a6,6,0,0,1-5.93,5v1.54h0Z" transform="translate(0.01 0.03)"/>
      <circle class="cls-1" cx="16.31" cy="9.64" r="0.51"/>
    </g>
    <path class="cls-1" d="M12.46,10.27L11.9,9.95a3.33,3.33,0,1,1,0-.8l0.56-.32,1-.57a5,5,0,1,0,0,2.57Z" transform="translate(0.01 0.03)"/>
    <circle class="cls-1" cx="8.52" cy="9.58" r="1.14"/>
    <g>
      <path class="cls-1" d="M58.64,10.11h1.08c0.32,0,.49-0.12.49-0.34s-0.16-.34-0.49-0.34H58.64V9h1a0.73,0.73,0,0,1,.85.78,0.72,0.72,0,0,1-.67.76H58.68V10.11h0Z" transform="translate(0.01 0.03)"/>
      <path class="cls-1" d="M60.51,8.34H58.64V7.84l0.69-.39A5.43,5.43,0,0,1,60,7.11h0a7,7,0,0,1-.78,0H58.64V6.79h1.87V7.23l-0.72.4a7,7,0,0,1-.66.33h1.38V8.35h0Z" transform="translate(0.01 0.03)"/>
      <path class="cls-1" d="M60,5.61l0.48,0.13V6.18l-1.87-.57V5.06l1.87-.58V4.94L60,5.11v0.5Zm-0.32-.5-0.4.12-0.36.09h0l0.36,0.09,0.4,0.11V5.11Z" transform="translate(0.01 0.03)"/>
      <path class="cls-1" d="M59.77,2.51H59l0.73,0.21,0.73,0.23V3.28l-0.73.2c-0.22.06-.49,0.13-0.73,0.17h1.49V4.11L58.62,4V3.45l0.63-.18c0.22-.06.45-0.12,0.67-0.16h0l-0.67-.18-0.62-.2V2.17l1.87-.1V2.48Z" transform="translate(0.01 0.03)"/>
    </g>
    <g>
      <g>
        <path class="cls-1" d="M26.77,8.51a4.18,4.18,0,0,1-.7.94,4.62,4.62,0,0,1-.92.72,4.47,4.47,0,0,1-2.3.63,4.31,4.31,0,0,1-1.74-.35,4.53,4.53,0,0,1-2.34-2.34,4.43,4.43,0,0,1,0-3.47,4.53,4.53,0,0,1,2.39-2.39A4.31,4.31,0,0,1,22.9,1.9a4.47,4.47,0,0,1,2.3.63,4.62,4.62,0,0,1,.92.72,4.3,4.3,0,0,1,.65.86l-1.55.63a3.3,3.3,0,0,0-.45-0.52,3.21,3.21,0,0,0-.56-0.44,2.86,2.86,0,0,0-.65-0.3,2.38,2.38,0,0,0-.71-0.11,2.56,2.56,0,0,0-1.1.24,2.93,2.93,0,0,0-.89.64,3.1,3.1,0,0,0-.6.94,2.9,2.9,0,0,0,0,2.24,3.11,3.11,0,0,0,.6.93,2.92,2.92,0,0,0,.89.64,2.56,2.56,0,0,0,1.1.24,2.38,2.38,0,0,0,.71-0.11,2.85,2.85,0,0,0,.65-0.3,3.06,3.06,0,0,0,.56-0.41,3.52,3.52,0,0,0,.44-0.54Z" transform="translate(0.01 0.03)"/>
        <path class="cls-1" d="M31,10.79a4.27,4.27,0,0,1-1.52-.26,3.35,3.35,0,0,1-1.17-.73,3.23,3.23,0,0,1-.75-1.15,4,4,0,0,1-.27-1.5V2h1.65V7.11a2.39,2.39,0,0,0,.21,1.07,2,2,0,0,0,.53.67,1.82,1.82,0,0,0,.67.34,2.25,2.25,0,0,0,1.29,0,1.82,1.82,0,0,0,.67-0.34,2,2,0,0,0,.51-0.63A2.39,2.39,0,0,0,33,7.11V2h1.65V7.11a4.14,4.14,0,0,1-.26,1.5,3.17,3.17,0,0,1-.74,1.15,3.36,3.36,0,0,1-1.17.73A4.31,4.31,0,0,1,31,10.79Z" transform="translate(0.01 0.03)"/>
        <path class="cls-1" d="M34,10.64L38.43,2H38.6L43,10.64h-1.8L40.55,9.28H36.47l-0.7,1.36H34Zm3.26-2.8h2.5L38.54,5.23Z" transform="translate(0.01 0.03)"/>
        <path class="cls-1" d="M44.86,3.46V5.62H49V7.11H44.86v2h4.71V10.6H43.21V2h6.36V3.45H44.86Z" transform="translate(0.01 0.03)"/>
        <path class="cls-1" d="M53.3,10.64H49.9V2h3.41a4.34,4.34,0,0,1,3,1.09,3.71,3.71,0,0,1,1,1.4,5.39,5.39,0,0,1,0,3.68,3.7,3.7,0,0,1-1,1.4,3.86,3.86,0,0,1-1.35.8A5.06,5.06,0,0,1,53.3,10.64ZM51.55,9.18h1.76a4.24,4.24,0,0,0,.93-0.07,2.05,2.05,0,0,0,.86-0.42,2.31,2.31,0,0,0,.67-0.91A3.6,3.6,0,0,0,56,6.33a3.64,3.64,0,0,0-.25-1.46A2.22,2.22,0,0,0,55.13,4a2.14,2.14,0,0,0-.86-0.41,4.19,4.19,0,0,0-.92-0.11h-1.8V9.17h0Z" transform="translate(0.01 0.03)"/>
      </g>
      <g>
        <g>
          <path class="cls-1" d="M19.66,14.34a1.06,1.06,0,0,1-.44.08,0.77,0.77,0,0,1-.81-0.83,0.82,0.82,0,0,1,.77-0.87h0.09a0.88,0.88,0,0,1,.39.07l0,0.17a0.78,0.78,0,0,0-.33-0.07,0.61,0.61,0,0,0-.64.68,0.6,0.6,0,0,0,.54.66h0.09a0.85,0.85,0,0,0,.35-0.07Z" transform="translate(0.01 0.03)"/>
          <path class="cls-1" d="M21,13.79a0.58,0.58,0,0,1-.53.63H20.37a0.56,0.56,0,0,1-.6-0.61,0.58,0.58,0,0,1,.53-0.63h0.06A0.56,0.56,0,0,1,21,13.79Zm-0.94,0a0.37,0.37,0,1,0,.36-0.46,0.4,0.4,0,0,0-.37.43v0h0Z" transform="translate(0.01 0.03)"/>
          <path class="cls-1" d="M22.3,13.79a0.58,0.58,0,0,1-.53.63H21.71a0.56,0.56,0,0,1-.57-0.61,0.58,0.58,0,0,1,.53-0.63h0.1a0.56,0.56,0,0,1,.53.59v0Zm-0.94,0a0.37,0.37,0,1,0,.41-0.45,0.4,0.4,0,0,0-.4.46h0Z" transform="translate(0.01 0.03)"/>
          <path class="cls-1" d="M22.58,13.58V13.21h0.19v0.23h0a0.35,0.35,0,0,1,.33-0.26h0.06v0.2H23.09a0.3,0.3,0,0,0-.29.28,0.61,0.61,0,0,0,0,.1v0.63H22.58V13.58Z" transform="translate(0.01 0.03)"/>
          <path class="cls-1" d="M24.37,12.65v1.77H24.19V14.18h0a0.44,0.44,0,0,1-.4.23,0.54,0.54,0,0,1-.51-0.57v0a0.57,0.57,0,0,1,.49-0.63,0.4,0.4,0,0,1,.36.18h0V12.65h0.24Zm-0.22,1a0.38,0.38,0,0,0,0-.09,0.32,0.32,0,0,0-.31-0.25,0.39,0.39,0,0,0-.36.42v0a0.38,0.38,0,0,0,.31.44h0a0.32,0.32,0,0,0,.32-0.26,0.37,0.37,0,0,0,0-.09V13.65Z" transform="translate(0.01 0.03)"/>
          <path class="cls-1" d="M25,12.87a0.14,0.14,0,0,1-.27,0h0a0.14,0.14,0,0,1,.27,0h0Zm-0.2,1.52V13.21H25v1.18H24.77Z" transform="translate(0.01 0.03)"/>
          <path class="cls-1" d="M25.3,13.53V13.21h0.19v0.2h0a0.43,0.43,0,0,1,.81.28V14.4H26.1V13.71a0.29,0.29,0,0,0-.22-0.34h0a0.27,0.27,0,0,0-.29.32v0.71H25.3V13.53Z" transform="translate(0.01 0.03)"/>
          <path class="cls-1" d="M27.32,14.39V14.24h0a0.44,0.44,0,0,1-.36.18,0.34,0.34,0,0,1-.39-0.29v0c0-.29.25-0.44,0.71-0.44h0a0.24,0.24,0,0,0-.21-0.27H27a0.59,0.59,0,0,0-.31.09V13.35a0.73,0.73,0,0,1,.39-0.11,0.42,0.42,0,0,1,.45.48v0.39a1.68,1.68,0,0,0,0,.28H27.32Zm0-.6c-0.23,0-.5,0-0.5.27a0.19,0.19,0,0,0,.17.21h0a0.29,0.29,0,0,0,.29-0.2,0.22,0.22,0,0,0,0-.07V13.79h0Z" transform="translate(0.01 0.03)"/>
          <path class="cls-1" d="M28.68,14.35a0.79,0.79,0,0,1-.34.07,0.56,0.56,0,0,1-.57-0.61,0.6,0.6,0,0,1,.57-0.63h0.07a0.72,0.72,0,0,1,.3.06v0.17a0.5,0.5,0,0,0-.25-0.06,0.45,0.45,0,0,0,0,.89,0.61,0.61,0,0,0,.26-0.06Z" transform="translate(0.01 0.03)"/>
          <path class="cls-1" d="M29.17,12.87a0.14,0.14,0,0,1-.27,0h0a0.14,0.14,0,0,1,.27,0h0Zm-0.24,1.52V13.21h0.22v1.18H28.93Z" transform="translate(0.01 0.03)"/>
          <path class="cls-1" d="M30.58,13.79a0.58,0.58,0,0,1-.53.63H30a0.56,0.56,0,0,1-.57-0.61,0.58,0.58,0,0,1,.53-0.63H30A0.56,0.56,0,0,1,30.58,13.79Zm-0.94,0A0.37,0.37,0,1,0,30,13.33a0.4,0.4,0,0,0-.37.43v0h0Zm0.68-1.11L30,13H29.87l0.22-.35h0.23Z" transform="translate(0.01 0.03)"/>
          <path class="cls-1" d="M30.85,13.53V13.21H31v0.2h0a0.43,0.43,0,0,1,.81.28V14.4H31.64V13.71a0.29,0.29,0,0,0-.22-0.34h0a0.27,0.27,0,0,0-.29.32v0.71H30.85V13.53Z" transform="translate(0.01 0.03)"/>
          <path class="cls-1" d="M33.77,12.65v1.77H33.56V14.18h0a0.44,0.44,0,0,1-.4.23,0.54,0.54,0,0,1-.51-0.57v0a0.57,0.57,0,0,1,.49-0.64h0a0.4,0.4,0,0,1,.36.18h0v-0.7h0.23Zm-0.22,1a0.38,0.38,0,0,0,0-.09,0.32,0.32,0,0,0-.31-0.25,0.39,0.39,0,0,0-.36.42v0a0.38,0.38,0,0,0,.31.44h0a0.32,0.32,0,0,0,.32-0.26,0.37,0.37,0,0,0,0-.09V13.65Z" transform="translate(0.01 0.03)"/>
          <path class="cls-1" d="M34.22,13.84a0.38,0.38,0,0,0,.35.41h0.06A0.78,0.78,0,0,0,35,14.19v0.15a1,1,0,0,1-.39.07,0.55,0.55,0,0,1-.58-0.6,0.57,0.57,0,0,1,.5-0.64h0.06a0.5,0.5,0,0,1,.49.56,0.81,0.81,0,0,1,0,.1H34.22Zm0.63-.15a0.31,0.31,0,0,0-.27-0.35h0a0.36,0.36,0,0,0-.33.35h0.63Z" transform="translate(0.01 0.03)"/>
          <path class="cls-1" d="M36.07,12.74v1a0.41,0.41,0,1,0,.78,0v-1h0.22v1a0.61,0.61,0,0,1-.5.7H36.45a0.58,0.58,0,0,1-.59-0.7v-1h0.21Z" transform="translate(0.01 0.03)"/>
          <path class="cls-1" d="M37.43,13.53V13.21h0.19v0.2h0a0.43,0.43,0,0,1,.81.28V14.4H38.22V13.71A0.29,0.29,0,0,0,38,13.37h0a0.27,0.27,0,0,0-.29.32v0.71H37.43V13.53Z" transform="translate(0.01 0.03)"/>
          <path class="cls-1" d="M39,12.87a0.14,0.14,0,0,1-.27,0h0a0.13,0.13,0,0,1,.13-0.13h0a0.13,0.13,0,0,1,.14.12h0Zm-0.26,1.52V13.21H39v1.18H38.77Z" transform="translate(0.01 0.03)"/>
          <path class="cls-1" d="M39.44,13.21l0.23,0.67a3,3,0,0,1,.1.3h0a0.88,0.88,0,0,1,.1-0.3l0.23-.67h0.22l-0.45,1.18H39.66l-0.45-1.18h0.23Z" transform="translate(0.01 0.03)"/>
          <path class="cls-1" d="M40.63,13.84a0.38,0.38,0,0,0,.35.41H41a0.78,0.78,0,0,0,.33-0.06v0.15a1,1,0,0,1-.39.07,0.55,0.55,0,0,1-.58-0.6,0.57,0.57,0,0,1,.5-0.64H41a0.5,0.5,0,0,1,.49.56,0.81,0.81,0,0,1,0,.1H40.63Zm0.63-.15A0.31,0.31,0,0,0,41,13.34h0a0.36,0.36,0,0,0-.33.35h0.63Z" transform="translate(0.01 0.03)"/>
          <path class="cls-1" d="M41.77,13.58V13.21H42v0.23h0a0.35,0.35,0,0,1,.33-0.26h0.06v0.2h-0.1a0.3,0.3,0,0,0-.29.28,0.61,0.61,0,0,0,0,.1v0.63H41.77V13.58Z" transform="translate(0.01 0.03)"/>
          <path class="cls-1" d="M42.51,14.17a0.56,0.56,0,0,0,.28.09A0.19,0.19,0,0,0,43,14.12h0a0.24,0.24,0,0,0-.23-0.25h0a0.38,0.38,0,0,1-.31-0.33,0.36,0.36,0,0,1,.37-0.35h0a0.59,0.59,0,0,1,.29.07l0,0.16a0.46,0.46,0,0,0-.24-0.07,0.17,0.17,0,0,0-.2.14v0c0,0.1.07,0.14,0.22,0.2a0.36,0.36,0,1,1-.13.71h0a0.68,0.68,0,0,1-.33-0.08Z" transform="translate(0.01 0.03)"/>
          <path class="cls-1" d="M43.77,12.87a0.14,0.14,0,0,1-.27,0h0a0.13,0.13,0,0,1,.13-0.13h0a0.13,0.13,0,0,1,.14.12h0Zm-0.24,1.52V13.21h0.22v1.18H43.53Z" transform="translate(0.01 0.03)"/>
          <path class="cls-1" d="M45.1,12.65v1.77H44.92V14.18h0a0.44,0.44,0,0,1-.4.23A0.54,0.54,0,0,1,44,13.84v0a0.57,0.57,0,0,1,.49-0.64h0a0.4,0.4,0,0,1,.36.18h0v-0.7h0.2Zm-0.22,1a0.38,0.38,0,0,0,0-.09,0.32,0.32,0,0,0-.31-0.25,0.39,0.39,0,0,0-.36.42v0a0.38,0.38,0,0,0,.31.44h0a0.32,0.32,0,0,0,.32-0.26,0.37,0.37,0,0,0,0-.09V13.65Z" transform="translate(0.01 0.03)"/>
          <path class="cls-1" d="M46.11,14.39V14.24h0a0.44,0.44,0,0,1-.36.18,0.34,0.34,0,0,1-.39-0.29v0c0-.29.25-0.44,0.71-0.44h0a0.24,0.24,0,0,0-.3-0.33,0.59,0.59,0,0,0-.31.09V13.29a0.73,0.73,0,0,1,.39-0.11,0.42,0.42,0,0,1,.45.48v0.45a1.68,1.68,0,0,0,0,.28H46.11Zm0-.6c-0.23,0-.5,0-0.5.27a0.19,0.19,0,0,0,.17.21h0a0.29,0.29,0,0,0,.29-0.2,0.22,0.22,0,0,0,0-.07V13.79h0Z" transform="translate(0.01 0.03)"/>
          <path class="cls-1" d="M47.66,12.65v1.77H47.47V14.18h0a0.44,0.44,0,0,1-.4.23,0.54,0.54,0,0,1-.51-0.57v0a0.57,0.57,0,0,1,.49-0.64h0a0.4,0.4,0,0,1,.36.18h0v-0.7h0.21Zm-0.22,1a0.38,0.38,0,0,0,0-.09,0.32,0.32,0,0,0-.31-0.25,0.39,0.39,0,0,0-.36.42v0a0.38,0.38,0,0,0,.31.44h0a0.32,0.32,0,0,0,.32-0.26,0.37,0.37,0,0,0,0-.09V13.65Z" transform="translate(0.01 0.03)"/>
          <path class="cls-1" d="M48.77,13.87l-0.17.52H48.42L49,12.74h0.26l0.53,1.65h-0.2l-0.18-.52H48.77Zm0.54-.17-0.16-.47a1,1,0,0,0-.09-0.3h0a1.11,1.11,0,0,1-.08.3l-0.16.48h0.49Z" transform="translate(0.01 0.03)"/>
          <path class="cls-1" d="M50,14.39V12.65h0.21v0.74h0a0.44,0.44,0,0,1,.4-0.22,0.53,0.53,0,0,1,.5.55v0a0.56,0.56,0,0,1-.48.63h0a0.42,0.42,0,0,1-.4-0.22h0v0.2H50Zm0.22-.47a0.4,0.4,0,0,0,0,.08,0.33,0.33,0,0,0,.32.25,0.46,0.46,0,0,0,0-.89,0.34,0.34,0,0,0-.33.26,0.42,0.42,0,0,0,0,.09v0.21h0Z" transform="translate(0.01 0.03)"/>
          <path class="cls-1" d="M51.65,12.87a0.14,0.14,0,0,1-.27,0h0a0.13,0.13,0,0,1,.13-0.13h0a0.13,0.13,0,0,1,.14.12h0Zm-0.24,1.52V13.21h0.22v1.18H51.41Z" transform="translate(0.01 0.03)"/>
          <path class="cls-1" d="M52.11,13.84a0.38,0.38,0,0,0,.35.41h0.06a0.78,0.78,0,0,0,.33-0.06v0.15a1,1,0,0,1-.39.07,0.55,0.55,0,0,1-.58-0.6,0.57,0.57,0,0,1,.5-0.64h0.06a0.5,0.5,0,0,1,.49.56,0.81,0.81,0,0,1,0,.1H52.11Zm0.66-.16a0.31,0.31,0,0,0-.27-0.35h0a0.36,0.36,0,0,0-.33.35h0.63Z" transform="translate(0.01 0.03)"/>
          <path class="cls-1" d="M53.21,13.58V13.21H53.4v0.23h0a0.35,0.35,0,0,1,.37-0.26h0v0.2h0a0.3,0.3,0,0,0-.29.28,0.61,0.61,0,0,0,0,.1v0.63H53.21V13.58Z" transform="translate(0.01 0.03)"/>
          <path class="cls-1" d="M54.33,12.87v0.34h0.31v0.16H54.33V14c0,0.15,0,.23.16,0.23h0.12V14.4a0.53,0.53,0,0,1-.19,0,0.3,0.3,0,0,1-.23-0.09A0.44,0.44,0,0,1,54.11,14V13.37H53.93V13.21h0.18V12.92Z" transform="translate(0.01 0.03)"/>
          <path class="cls-1" d="M55.53,14.39V14.24h0a0.44,0.44,0,0,1-.36.18,0.34,0.34,0,0,1-.4-0.27v0c0-.29.25-0.44,0.71-0.44h0a0.24,0.24,0,0,0-.21-0.27H55.21a0.59,0.59,0,0,0-.31.09V13.35a0.73,0.73,0,0,1,.39-0.11,0.42,0.42,0,0,1,.45.48v0.39a1.68,1.68,0,0,0,0,.28H55.53Zm0-.6c-0.23,0-.5,0-0.5.27a0.19,0.19,0,0,0,.17.21h0a0.29,0.29,0,0,0,.29-0.2,0.22,0.22,0,0,0,0-.07V13.79h0Z" transform="translate(0.01 0.03)"/>
          <path class="cls-1" d="M56.65,13.21l0.26,0.7L57,14.11h0l0.08-.25,0.23-.69h0.23L57.21,14a1.8,1.8,0,0,1-.41.74,0.58,0.58,0,0,1-.26.14l0-.18a0.57,0.57,0,0,0,.19-0.11,0.65,0.65,0,0,0,.18-0.24,0.15,0.15,0,0,0,0,0,0.19,0.19,0,0,0,0-.06l-0.44-1h0.23Z" transform="translate(0.01 0.03)"/>
        </g>
        <g>
          <path class="cls-1" d="M27.92,16.55H27.28v0.56H28v0.18H27.07V15.68H28v0.18H27.28v0.52h0.64v0.18h0Z" transform="translate(0.01 0.03)"/>
          <path class="cls-1" d="M29.28,15.59v1.74H29.09V17.11h0a0.44,0.44,0,0,1-.4.23,0.54,0.54,0,0,1-.51-0.57v0a0.57,0.57,0,0,1,.5-0.63h0a0.4,0.4,0,0,1,.36.18h0v-0.7h0.22Zm-0.22,1a0.38,0.38,0,0,0,0-.09,0.32,0.32,0,0,0-.29-0.22,0.39,0.39,0,0,0-.36.42v0a0.38,0.38,0,0,0,.31.44h0a0.32,0.32,0,0,0,.32-0.26,0.37,0.37,0,0,0,0-.09V16.62Z" transform="translate(0.01 0.03)"/>
          <path class="cls-1" d="M30.62,17v0.32H30.44V17.11h0a0.45,0.45,0,0,1-.39.22,0.42,0.42,0,0,1-.41-0.52v-0.7h0.22v0.66c0,0.22.07,0.38,0.26,0.38a0.3,0.3,0,0,0,.3-0.3h0V16.11h0.22V17Z" transform="translate(0.01 0.03)"/>
          <path class="cls-1" d="M31.82,17.28a0.79,0.79,0,0,1-.34.07,0.56,0.56,0,0,1-.59-0.6,0.6,0.6,0,0,1,.56-0.64h0.08a0.72,0.72,0,0,1,.3.06v0.17a0.5,0.5,0,0,0-.25-0.06,0.45,0.45,0,0,0,0,.89,0.61,0.61,0,0,0,.19-0.06Z" transform="translate(0.01 0.03)"/>
          <path class="cls-1" d="M32.77,17.32V17.17h0a0.44,0.44,0,0,1-.36.18A0.34,0.34,0,0,1,32.05,17v0c0-.29.25-0.44,0.71-0.44h0a0.24,0.24,0,0,0-.21-0.27H32.49a0.59,0.59,0,0,0-.31.09V16.25a0.73,0.73,0,0,1,.28-0.14,0.42,0.42,0,0,1,.45.48V17a1.68,1.68,0,0,0,0,.28H32.77Zm0-.6c-0.23,0-.5,0-0.5.27a0.19,0.19,0,0,0,.17.21h0a0.29,0.29,0,0,0,.29-0.2,0.22,0.22,0,0,0,0-.07V16.72h0Z" transform="translate(0.01 0.03)"/>
          <path class="cls-1" d="M34.1,17.28a0.79,0.79,0,0,1-.34.07,0.56,0.56,0,0,1-.59-0.6,0.6,0.6,0,0,1,.56-0.64h0a0.72,0.72,0,0,1,.3.06v0.17a0.5,0.5,0,0,0-.3,0,0.45,0.45,0,0,0,0,.89,0.61,0.61,0,0,0,.29-0.07Z" transform="translate(0.01 0.03)"/>
          <path class="cls-1" d="M34.59,15.81a0.14,0.14,0,1,1-.27,0h0a0.13,0.13,0,0,1,.13-0.13h0a0.13,0.13,0,0,1,.14.12h0Zm-0.24,1.52V16.11h0.22v1.18H34.35v0Z" transform="translate(0.01 0.03)"/>
          <path class="cls-1" d="M36,16.72a0.58,0.58,0,0,1-.53.63H35.4a0.56,0.56,0,0,1-.57-0.61,0.58,0.58,0,0,1,.53-0.63h0.06A0.56,0.56,0,0,1,36,16.72Zm-0.94,0a0.37,0.37,0,1,0,.36-0.46,0.4,0.4,0,0,0-.36.44v0Zm0.72-1.09-0.3.35H35.29l0.22-.35h0.26Z" transform="translate(0.01 0.03)"/>
          <path class="cls-1" d="M36.27,16.46V16.14h0.19v0.2h0a0.44,0.44,0,0,1,.82.27v0.71H37.06V16.64a0.29,0.29,0,0,0-.22-0.34H36.77a0.27,0.27,0,0,0-.29.32v0.71H36.27V16.46Z" transform="translate(0.01 0.03)"/>
          <path class="cls-1" d="M38.77,17.32V17.17h0a0.44,0.44,0,0,1-.36.18A0.34,0.34,0,0,1,38.05,17v0c0-.29.25-0.44,0.71-0.44h0a0.24,0.24,0,0,0-.21-0.27H38.49a0.59,0.59,0,0,0-.31.09V16.25a0.73,0.73,0,0,1,.34-0.14,0.42,0.42,0,0,1,.45.48V17a1.68,1.68,0,0,0,0,.28h-0.2Zm0-.6c-0.23,0-.5,0-0.5.27a0.19,0.19,0,0,0,.17.21h0a0.29,0.29,0,0,0,.29-0.2,0.22,0.22,0,0,0,0-.07V16.72h0Z" transform="translate(0.01 0.03)"/>
          <path class="cls-1" d="M39.85,15.7a3,3,0,0,1,.45,0,0.94,0.94,0,0,1,.67.21,0.76,0.76,0,0,1,.23.59,0.87,0.87,0,0,1-.24.64,1,1,0,0,1-.73.24H39.84V15.7h0Zm0.21,1.41h0.21a0.63,0.63,0,0,0,.7-0.7,0.59,0.59,0,0,0-.53-0.64H40.05v1.34h0Z" transform="translate(0.01 0.03)"/>
          <path class="cls-1" d="M41.71,15.81a0.14,0.14,0,1,1-.27,0h0a0.13,0.13,0,0,1,.13-0.13h0a0.13,0.13,0,0,1,.14.12h0Zm-0.24,1.51V16.11h0.22v1.18H41.47v0Z" transform="translate(0.01 0.03)"/>
          <path class="cls-1" d="M42,17.11a0.56,0.56,0,0,0,.28.09,0.19,0.19,0,0,0,.23-0.15v0a0.24,0.24,0,0,0-.22-0.22A0.38,0.38,0,0,1,42,16.47a0.36,0.36,0,0,1,.36-0.36H42.4a0.59,0.59,0,0,1,.29.07l0,0.16a0.46,0.46,0,0,0-.24-0.07,0.17,0.17,0,0,0-.2.14v0c0,0.1.07,0.14,0.22,0.2a0.36,0.36,0,1,1-.13.71h0A0.68,0.68,0,0,1,42,17.26Z" transform="translate(0.01 0.03)"/>
          <path class="cls-1" d="M43.27,15.8v0.31h0.31v0.16H43.27v0.64c0,0.15,0,.23.16,0.23h0.12V17.3a0.53,0.53,0,0,1-.19,0,0.3,0.3,0,0,1-.23-0.09A0.44,0.44,0,0,1,43,16.9V16.3H42.87V16.11H43V15.86Z" transform="translate(0.01 0.03)"/>
          <path class="cls-1" d="M44.47,17.32V17.17h0a0.44,0.44,0,0,1-.36.18A0.34,0.34,0,0,1,43.77,17h0c0-.29.25-0.44,0.71-0.44h0a0.24,0.24,0,0,0-.21-0.27H44.21a0.59,0.59,0,0,0-.31.09V16.25a0.73,0.73,0,0,1,.3-0.14,0.42,0.42,0,0,1,.45.48V17a1.68,1.68,0,0,0,0,.28H44.47Zm0-.6c-0.23,0-.5,0-0.5.27a0.19,0.19,0,0,0,.17.21h0a0.29,0.29,0,0,0,.29-0.2,0.22,0.22,0,0,0,0-.07V16.72h0Z" transform="translate(0.01 0.03)"/>
          <path class="cls-1" d="M45,16.46V16.14h0.19v0.2h0a0.44,0.44,0,0,1,.82.27v0.71H45.77V16.64a0.29,0.29,0,0,0-.22-0.34h0a0.27,0.27,0,0,0-.29.32v0.71H45V16.46Z" transform="translate(0.01 0.03)"/>
          <path class="cls-1" d="M47.2,17.28a0.79,0.79,0,0,1-.34.07,0.56,0.56,0,0,1-.59-0.6,0.6,0.6,0,0,1,.56-0.64H46.9a0.72,0.72,0,0,1,.3.06v0.17A0.5,0.5,0,0,0,47,16.28a0.45,0.45,0,0,0,0,.89,0.61,0.61,0,0,0,.21-0.06Z" transform="translate(0.01 0.03)"/>
          <path class="cls-1" d="M47.69,15.81a0.14,0.14,0,1,1-.27,0h0a0.13,0.13,0,0,1,.13-0.13h0a0.13,0.13,0,0,1,.14.12h0Zm-0.24,1.52V16.11h0.22v1.18H47.45v0Z" transform="translate(0.01 0.03)"/>
          <path class="cls-1" d="M48.68,17.32V17.17h0a0.44,0.44,0,0,1-.36.18A0.34,0.34,0,0,1,48,17v0c0-.29.25-0.44,0.71-0.44h0a0.24,0.24,0,0,0-.21-0.27H48.4a0.59,0.59,0,0,0-.31.09V16.25a0.73,0.73,0,0,1,.31-0.14,0.42,0.42,0,0,1,.45.48V17a1.68,1.68,0,0,0,0,.28H48.68Zm0-.6c-0.23,0-.5,0-0.5.27a0.19,0.19,0,0,0,.17.21h0a0.29,0.29,0,0,0,.29-0.2,0.22,0.22,0,0,0,0-.07V16.72h0Z" transform="translate(0.01 0.03)"/>
        </g>
      </g>
    </g>
    <rect class="cls-1" x="9.3" y="9.54" width="7.01" height="0.21"/>
  </g>
</svg>
