<svg id="Capa_1" data-name="Capa 1" xmlns="http://www.w3.org/2000/svg" viewBox="0 0 60.552 19.09637">
  <defs>
    <style>
      .cls-1 {
        fill: #b48624;
      }

      .cls-2 {
        fill: #868686;
      }

      .cls-3 {
        fill: #313b66;
      }

      .cls-4 {
        fill: none;
        stroke: #313b66;
        stroke-miterlimit: 10;
        stroke-width: 0.1478px;
      }
    </style>
  </defs>
  <title>logo_cuaed</title>
  <g>
    <g>
      <g>
        <circle class="cls-1" cx="10.36953" cy="1.08575" r="0.44478"/>
        <path class="cls-1" d="M9.47515,17.12257a7.58966,7.58966,0,0,1-7.48621-6.40016L-0.006,10.68236a9.54978,9.54978,0,0,0,9.48115,8.41083V17.12257Zm0-17.12575a9.55019,9.55019,0,0,0-9.458,8.2305l1.99624-.00625A7.59008,7.59008,0,0,1,9.47515,1.96742v-1.9706Z" transform="translate(0.006 0.00318)"/>
        <circle class="cls-1" cx="1.13791" cy="9.61357" r="0.44478"/>
        <circle class="cls-1" cx="10.36953" cy="18.47994" r="0.44478"/>
        <path class="cls-2" d="M9.47515,3.49728a6.03666,6.03666,0,0,1,5.95438,5.09056l1.58674,0.03186a7.5957,7.5957,0,0,0-7.54111-6.6898V3.49728Zm0,13.62148a7.596,7.596,0,0,0,7.5227-6.54637l-1.58777.005a6.037,6.037,0,0,1-5.93494,4.974v1.56738Z" transform="translate(0.006 0.00318)"/>
        <circle class="cls-3" cx="16.30103" cy="9.61357" r="0.50732"/>
      </g>
      <path class="cls-3" d="M12.45331,10.2707l-0.55986-.32324a3.32909,3.32909,0,1,1,0-.79747l0.55986-.32324,0.97907-.56527a5.01109,5.01109,0,1,0,0,2.57447Z" transform="translate(0.006 0.00318)"/>
      <line class="cls-4" x1="8.51113" y1="9.64191" x2="16.22851" y2="9.58524"/>
      <circle class="cls-3" cx="8.51113" cy="9.55191" r="1.13763"/>
    </g>
    <g>
      <path class="cls-1" d="M58.64073,10.1417H59.7199c0.32256,0,.48675-0.12234.48675-0.33929,0-.22251-0.15579-0.34491-0.48675-0.34491H58.64073V9.03476H59.692a0.73375,0.73375,0,0,1,.854.78154,0.71693,0.71693,0,0,1-.85956.751H58.64073V10.1417Z" transform="translate(0.006 0.00318)"/>
      <path class="cls-1" d="M60.51539,8.34358H58.64073V7.8485l0.687-.38941a5.42891,5.42891,0,0,1,.64254-0.306V7.14479a6.95347,6.95347,0,0,1-.78166.03617H58.64073V6.79155h1.87465v0.445l-0.72315.40052a6.96674,6.96674,0,0,1-.662.3254L59.133,7.97083c0.24751-.01111.51168-0.01667,0.81771-0.01667h0.56464V8.34358Z" transform="translate(0.006 0.00318)"/>
      <path class="cls-1" d="M60.03419,5.61639L60.51539,5.7499V6.18937l-1.87465-.573V5.06014l1.87465-.58131V4.935l-0.48119.14462V5.61639Zm-0.31713-.47564-0.39774.11684c-0.11122.03339-.25035,0.06672-0.36157,0.09456V5.35771c0.11122,0.02784.25319,0.05561,0.36157,0.08623l0.39774,0.11129V5.14076Z" transform="translate(0.006 0.00318)"/>
      <path class="cls-1" d="M59.79779,2.50819c-0.22529.00833-.49786,0.01673-0.77043,0.01673V2.53325c0.23912,0.05839.50613,0.13628,0.72586,0.20862l0.73154,0.22807v0.331l-0.726.20029c-0.21973.06117-.48675,0.12511-0.73142,0.16961V3.67636c0.25306,0.01117.5423,0.0195,0.776,0.03339l0.712,0.03339V4.13534l-1.87465-.11962V3.45107l0.62575-.18356c0.217-.05839.45058-0.11678,0.67031-0.1585V3.10067c-0.21689-.0529-0.4644-0.11684-0.673-0.178l-0.623-.20029V2.1689l1.87465-.103V2.48042Z" transform="translate(0.006 0.00318)"/>
    </g>
    <g>
      <g>
        <path class="cls-3" d="M26.78808,8.51366a4.17788,4.17788,0,0,1-.69675.93913,4.61736,4.61736,0,0,1-.91546.72055,4.46943,4.46943,0,0,1-2.29765.63191,4.3091,4.3091,0,0,1-1.73649-.35429A4.53081,4.53081,0,0,1,18.75585,8.0648a4.42924,4.42924,0,0,1,0-3.47284,4.53118,4.53118,0,0,1,2.38589-2.386,4.30694,4.30694,0,0,1,1.73649-.35443,4.47126,4.47126,0,0,1,2.29765.632,4.62229,4.62229,0,0,1,.91546.72055,4.30428,4.30428,0,0,1,.69675.92716l-1.54737.62613a3.30311,3.30311,0,0,0-.4428-0.53157,3.21321,3.21321,0,0,0-.56116-0.437,2.85706,2.85706,0,0,0-.64967-0.29538,2.37972,2.37972,0,0,0-.70885-0.10626,2.55919,2.55919,0,0,0-1.1043.24211,2.928,2.928,0,0,0-.89205.64375,3.09656,3.09656,0,0,0-.60232.93913,2.90387,2.90387,0,0,0,0,2.23847,3.112,3.112,0,0,0,.60232.93308,2.91937,2.91937,0,0,0,.89205.64389,2.55725,2.55725,0,0,0,1.1043.24211,2.384,2.384,0,0,0,.70885-0.10626,2.85125,2.85125,0,0,0,.64967-0.29538,3.05616,3.05616,0,0,0,.56116-0.44293,3.5222,3.5222,0,0,0,.4428-0.53749Z" transform="translate(0.006 0.00318)"/>
        <path class="cls-3" d="M30.9465,10.79355a4.269,4.269,0,0,1-1.5237-.25987,3.35068,3.35068,0,0,1-1.1694-.73239,3.23206,3.23206,0,0,1-.75-1.14587,4.05184,4.05184,0,0,1-.26579-1.50016V2.00513h1.65363v5.1418A2.39018,2.39018,0,0,0,29.104,8.2203a1.95,1.95,0,0,0,.52565.67213,1.818,1.818,0,0,0,.67307.34205,2.24563,2.24563,0,0,0,1.28777,0,1.82207,1.82207,0,0,0,.67307-0.34205,1.95315,1.95315,0,0,0,.52565-0.67213A2.39018,2.39018,0,0,0,33.002,7.14693V2.00513h1.65363V7.15527a4.13592,4.13592,0,0,1-.25987,1.50016,3.17246,3.17246,0,0,1-.74409,1.14587,3.35561,3.35561,0,0,1-1.1694.73239A4.30634,4.30634,0,0,1,30.9465,10.79355Z" transform="translate(0.006 0.00318)"/>
        <path class="cls-3" d="M34.01434,10.63994l4.418-8.63482h0.16517l4.418,8.63482H41.21989L40.54681,9.28156h-4.0753L35.81,10.63994H34.01434Zm3.26045-2.7995h2.46874L38.51495,5.22993Z" transform="translate(0.006 0.00318)"/>
        <path class="cls-3" d="M44.86234,3.45807V5.61973h4.18156V7.11989H44.86234V9.15162h4.71313v1.48832H43.20871V1.99329h6.36676V3.45807H44.86234Z" transform="translate(0.006 0.00318)"/>
        <path class="cls-3" d="M53.3075,10.63994H49.89909V1.99329H53.3075a4.34157,4.34157,0,0,1,3.04309,1.08682,3.707,3.707,0,0,1,.96119,1.39968,4.96146,4.96146,0,0,1,.32443,1.83683,4.99449,4.99449,0,0,1-.32443,1.84867A3.70284,3.70284,0,0,1,56.35059,9.565a3.86364,3.86364,0,0,1-1.35072.80328A5.06369,5.06369,0,0,1,53.3075,10.63994ZM51.55272,9.17516h1.76016a4.24417,4.24417,0,0,0,.93321-0.10626,2.05342,2.05342,0,0,0,.85627-0.41939,2.30949,2.30949,0,0,0,.63191-0.86811,3.596,3.596,0,0,0,.248-1.45295,3.64064,3.64064,0,0,0-.248-1.45886,2.22316,2.22316,0,0,0-.63783-0.86824A2.139,2.139,0,0,0,54.23425,3.588a4.19154,4.19154,0,0,0-.92137-0.1064H51.55272V9.17516Z" transform="translate(0.006 0.00318)"/>
      </g>
      <g>
        <g>
          <path class="cls-2" d="M19.65705,14.33971a1.05717,1.05717,0,0,1-.43522.07819,0.77021,0.77021,0,0,1-.81428-0.83386,0.82018,0.82018,0,0,1,.86077-0.86555,0.88436,0.88436,0,0,1,.39118.07329l-0.05127.17362a0.77656,0.77656,0,0,0-.33256-0.0684,0.61274,0.61274,0,0,0-.6431.67969,0.59909,0.59909,0,0,0,.63332.66268,0.85342,0.85342,0,0,0,.34725-0.0684Z" transform="translate(0.006 0.00318)"/>
          <path class="cls-2" d="M20.96074,13.79192a0.57841,0.57841,0,0,1-.58927.62842,0.56268,0.56268,0,0,1-.56736-0.60885,0.578,0.578,0,0,1,.58694-0.62842A0.56043,0.56043,0,0,1,20.96074,13.79192Zm-0.939.01224a0.3699,0.3699,0,1,0,.36437-0.45969A0.40288,0.40288,0,0,0,20.02178,13.80416Z" transform="translate(0.006 0.00318)"/>
          <path class="cls-2" d="M22.30358,13.79192a0.57841,0.57841,0,0,1-.58927.62842,0.56268,0.56268,0,0,1-.56736-0.60885,0.578,0.578,0,0,1,.58694-0.62842A0.56043,0.56043,0,0,1,22.30358,13.79192Zm-0.939.01224a0.3699,0.3699,0,1,0,.36437-0.45969A0.40288,0.40288,0,0,0,21.36461,13.80416Z" transform="translate(0.006 0.00318)"/>
          <path class="cls-2" d="M22.57531,13.57915c0-.13936-0.00245-0.25915-0.00979-0.36915h0.18831l0.00734,0.23224H22.771a0.35487,0.35487,0,0,1,.32767-0.25915,0.23263,0.23263,0,0,1,.06106.00734v0.203a0.32312,0.32312,0,0,0-.07329-0.00734,0.30193,0.30193,0,0,0-.28863.27628,0.6059,0.6059,0,0,0-.00979.10021v0.63087H22.57531V13.57915Z" transform="translate(0.006 0.00318)"/>
          <path class="cls-2" d="M24.37272,12.65732v1.43047c0,0.10522.00245,0.225,0.00979,0.30565h-0.1932l-0.00967-.20532H24.17474a0.43789,0.43789,0,0,1-.40353.23224,0.53953,0.53953,0,0,1-.50619-0.6015,0.56614,0.56614,0,0,1,.53066-0.63576,0.39565,0.39565,0,0,1,.357.181h0.00489V12.65732h0.21511Zm-0.21511,1.0344a0.38012,0.38012,0,0,0-.00979-0.09054,0.31645,0.31645,0,0,0-.31054-0.24936,0.39313,0.39313,0,0,0-.35459.45725,0.37738,0.37738,0,0,0,.34969.43767A0.32346,0.32346,0,0,0,24.14782,13.99a0.374,0.374,0,0,0,.00979-0.093V13.69171Z" transform="translate(0.006 0.00318)"/>
          <path class="cls-2" d="M24.96968,12.87743a0.13325,0.13325,0,0,1-.26649,0,0.13109,0.13109,0,0,1,.13447-0.13447A0.12763,0.12763,0,0,1,24.96968,12.87743Zm-0.23958,1.516V13.21h0.21511v1.18343H24.7301Z" transform="translate(0.006 0.00318)"/>
          <path class="cls-2" d="M25.30247,13.53032c0-.12224-0.00245-0.22256-0.00979-0.32033h0.19075l0.01224,0.19565h0.00489a0.43485,0.43485,0,0,1,.39118-0.22256,0.42909,0.42909,0,0,1,.41809.50374v0.70661H26.09473V13.71129a0.28883,0.28883,0,0,0-.27383-0.34969,0.30573,0.30573,0,0,0-.28863.22,0.30963,0.30963,0,0,0-.01468.10033v0.7115H25.30247v-0.8631Z" transform="translate(0.006 0.00318)"/>
          <path class="cls-2" d="M27.31522,14.39343l-0.01713-.14915H27.29075a0.44076,0.44076,0,0,1-.36193.17607,0.33725,0.33725,0,0,1-.36193-0.3399c0-.28607.25437-0.44256,0.71162-0.44012V13.61585a0.244,0.244,0,0,0-.26894-0.27383,0.59,0.59,0,0,0-.30809.088l-0.04894-.14181a0.7348,0.7348,0,0,1,.38873-0.10511,0.42,0.42,0,0,1,.45.48416V14.1098a1.67755,1.67755,0,0,0,.01946.28362H27.31522Zm-0.03181-.604c-0.2348-.00489-0.50129.03671-0.50129,0.26649a0.19038,0.19038,0,0,0,.203.20543,0.29438,0.29438,0,0,0,.28607-0.19809,0.22341,0.22341,0,0,0,.01224-0.0684V13.78948Z" transform="translate(0.006 0.00318)"/>
          <path class="cls-2" d="M28.68229,14.3495a0.79342,0.79342,0,0,1-.33979.0684,0.56228,0.56228,0,0,1-.58939-0.604,0.60135,0.60135,0,0,1,.63576-0.62842,0.71813,0.71813,0,0,1,.29831.06118l-0.04882.16628a0.49885,0.49885,0,0,0-.24948-0.05628,0.44616,0.44616,0,0,0-.00734.89,0.61308,0.61308,0,0,0,.26416-0.05861Z" transform="translate(0.006 0.00318)"/>
          <path class="cls-2" d="M29.17415,12.87743a0.13325,0.13325,0,0,1-.26649,0,0.13109,0.13109,0,0,1,.13447-0.13447A0.12763,0.12763,0,0,1,29.17415,12.87743Zm-0.23958,1.516V13.21h0.21511v1.18343H28.93457Z" transform="translate(0.006 0.00318)"/>
          <path class="cls-2" d="M30.57781,13.79192a0.57841,0.57841,0,0,1-.58927.62842,0.56268,0.56268,0,0,1-.56736-0.60885,0.578,0.578,0,0,1,.58694-0.62842A0.56043,0.56043,0,0,1,30.57781,13.79192Zm-0.939.01224a0.3699,0.3699,0,1,0,.36437-0.45969A0.40288,0.40288,0,0,0,29.63885,13.80416Zm0.68226-1.10524-0.29831.34969h-0.154l0.21511-.34969h0.23725Z" transform="translate(0.006 0.00318)"/>
          <path class="cls-2" d="M30.84967,13.53032c0-.12224-0.00245-0.22256-0.00979-0.32033h0.19075l0.01224,0.19565h0.00489a0.43485,0.43485,0,0,1,.39118-0.22256,0.42909,0.42909,0,0,1,.41809.50374v0.70661H31.64192V13.71129a0.28883,0.28883,0,0,0-.27383-0.34969,0.30573,0.30573,0,0,0-.28863.22,0.30963,0.30963,0,0,0-.01468.10033v0.7115H30.84967v-0.8631Z" transform="translate(0.006 0.00318)"/>
          <path class="cls-2" d="M33.74765,12.65732v1.43047c0,0.10522.00245,0.225,0.00979,0.30565h-0.1932l-0.00967-.20532H33.54968a0.43789,0.43789,0,0,1-.40353.23224,0.53953,0.53953,0,0,1-.50619-0.6015,0.56614,0.56614,0,0,1,.53066-0.63576,0.39565,0.39565,0,0,1,.357.181h0.00489V12.65732h0.21511Zm-0.21511,1.0344a0.38011,0.38011,0,0,0-.00979-0.09054,0.31645,0.31645,0,0,0-.31054-0.24936,0.39313,0.39313,0,0,0-.35459.45725,0.37738,0.37738,0,0,0,.34969.43767A0.32346,0.32346,0,0,0,33.52276,13.99a0.37405,0.37405,0,0,0,.00979-0.093V13.69171Z" transform="translate(0.006 0.00318)"/>
          <path class="cls-2" d="M34.22482,13.84086a0.37911,0.37911,0,0,0,.40586.41075,0.77918,0.77918,0,0,0,.32767-0.06106l0.03671,0.154a0.96013,0.96013,0,0,1-.39362.07329,0.54959,0.54959,0,0,1-.582-0.59661,0.57455,0.57455,0,0,1,.55513-0.63821,0.50144,0.50144,0,0,1,.48906.55746,0.81219,0.81219,0,0,1-.00734.10033H34.22482Zm0.63087-.154a0.30642,0.30642,0,0,0-.29831-0.34969,0.35663,0.35663,0,0,0-.33012.34969h0.62842Z" transform="translate(0.006 0.00318)"/>
          <path class="cls-2" d="M36.069,12.74541v0.97567a0.40935,0.40935,0,1,0,.78492,0V12.74541h0.21522v0.961a0.60633,0.60633,0,0,1-.62353.714,0.58439,0.58439,0,0,1-.59172-0.70416V12.74541H36.069Z" transform="translate(0.006 0.00318)"/>
          <path class="cls-2" d="M37.43137,13.53032c0-.12224-0.00245-0.22256-0.00979-0.32033h0.19075l0.01224,0.19565h0.00489a0.43485,0.43485,0,0,1,.39118-0.22256,0.42909,0.42909,0,0,1,.41809.50374v0.70661H38.22363V13.71129a0.28883,0.28883,0,0,0-.27383-0.34969,0.30573,0.30573,0,0,0-.28863.22,0.30963,0.30963,0,0,0-.01468.10033v0.7115H37.43137v-0.8631Z" transform="translate(0.006 0.00318)"/>
          <path class="cls-2" d="M39.02835,12.87743a0.13325,0.13325,0,0,1-.26649,0,0.13109,0.13109,0,0,1,.13447-0.13447A0.12763,0.12763,0,0,1,39.02835,12.87743Zm-0.23958,1.516V13.21h0.21511v1.18343H38.78878Z" transform="translate(0.006 0.00318)"/>
          <path class="cls-2" d="M39.44423,13.21l0.23235,0.66513a3.03085,3.03085,0,0,1,.09532.3032h0.00734c0.02692-.09788.06118-0.19565,0.10033-0.3032L40.10936,13.21h0.225l-0.46459,1.18343H39.66435L39.21444,13.21h0.22979Z" transform="translate(0.006 0.00318)"/>
          <path class="cls-2" d="M40.63291,13.84086a0.37915,0.37915,0,0,0,.406.41075,0.779,0.779,0,0,0,.32755-0.06106l0.03671,0.154a0.96013,0.96013,0,0,1-.39362.07329,0.54959,0.54959,0,0,1-.582-0.59661,0.57455,0.57455,0,0,1,.55513-0.63821,0.50144,0.50144,0,0,1,.48906.55746,0.81219,0.81219,0,0,1-.00734.10033H40.63291Zm0.63087-.154a0.30642,0.30642,0,0,0-.29831-0.34969,0.35663,0.35663,0,0,0-.33012.34969h0.62842Z" transform="translate(0.006 0.00318)"/>
          <path class="cls-2" d="M41.7385,13.57915c0-.13936-0.00245-0.25915-0.00979-0.36915H41.917l0.00734,0.23224h0.00979a0.35487,0.35487,0,0,1,.32767-0.25915,0.23263,0.23263,0,0,1,.06106.00734v0.203a0.32312,0.32312,0,0,0-.07329-0.00734,0.30193,0.30193,0,0,0-.28863.27628,0.6066,0.6066,0,0,0-.00967.10021v0.63087H41.7385V13.57915Z" transform="translate(0.006 0.00318)"/>
          <path class="cls-2" d="M42.509,14.17343a0.565,0.565,0,0,0,.28362.08553,0.19112,0.19112,0,0,0,.2299-0.17607,0.24313,0.24313,0,0,0-.22012-0.21755,0.38011,0.38011,0,0,1-.313-0.335,0.365,0.365,0,0,1,.40842-0.34725,0.59052,0.59052,0,0,1,.291.07341l-0.05383.15649a0.46034,0.46034,0,0,0-.242-0.06852,0.17268,0.17268,0,0,0-.19809.16139c0,0.09776.07085,0.14181,0.22489,0.20054a0.36212,0.36212,0,1,1-.132.7115,0.67608,0.67608,0,0,1-.33256-0.08064Z" transform="translate(0.006 0.00318)"/>
          <path class="cls-2" d="M43.74647,12.87743a0.13325,0.13325,0,0,1-.26649,0,0.13109,0.13109,0,0,1,.13447-0.13447A0.12763,0.12763,0,0,1,43.74647,12.87743Zm-0.23958,1.516V13.21H43.722v1.18343H43.50689Z" transform="translate(0.006 0.00318)"/>
          <path class="cls-2" d="M45.10119,12.65732v1.43047c0,0.10522.00245,0.225,0.00979,0.30565h-0.1932l-0.00967-.20532H44.90321a0.43789,0.43789,0,0,1-.40353.23224,0.53953,0.53953,0,0,1-.50619-0.6015,0.56614,0.56614,0,0,1,.53066-0.63576,0.39565,0.39565,0,0,1,.357.181h0.00489V12.65732h0.21511Zm-0.21511,1.0344a0.38012,0.38012,0,0,0-.00979-0.09054,0.31645,0.31645,0,0,0-.31054-0.24936,0.39313,0.39313,0,0,0-.35459.45725,0.37738,0.37738,0,0,0,.34969.43767A0.32346,0.32346,0,0,0,44.8763,13.99a0.374,0.374,0,0,0,.00979-0.093V13.69171Z" transform="translate(0.006 0.00318)"/>
          <path class="cls-2" d="M46.11391,14.39343l-0.01713-.14915H46.08944a0.44076,0.44076,0,0,1-.36193.17607,0.33725,0.33725,0,0,1-.36193-0.3399c0-.28607.25437-0.44256,0.71162-0.44012V13.61585a0.244,0.244,0,0,0-.26894-0.27383,0.59,0.59,0,0,0-.30809.088l-0.04894-.14181A0.7348,0.7348,0,0,1,45.84,13.18308a0.42,0.42,0,0,1,.45.48416V14.1098a1.67755,1.67755,0,0,0,.01946.28362H46.11391Zm-0.03181-.604c-0.2348-.00489-0.50129.03671-0.50129,0.26649a0.19038,0.19038,0,0,0,.203.20543,0.29438,0.29438,0,0,0,.28607-0.19809,0.22341,0.22341,0,0,0,.01224-0.0684V13.78948Z" transform="translate(0.006 0.00318)"/>
          <path class="cls-2" d="M47.65951,12.65732v1.43047c0,0.10522.00245,0.225,0.00979,0.30565H47.47621l-0.00979-.20532H47.46153a0.43789,0.43789,0,0,1-.40353.23224,0.53953,0.53953,0,0,1-.50619-0.6015,0.56614,0.56614,0,0,1,.53066-0.63576,0.39565,0.39565,0,0,1,.357.181H47.4444V12.65732h0.21511Zm-0.21511,1.0344a0.38012,0.38012,0,0,0-.00979-0.09054,0.31645,0.31645,0,0,0-.31054-0.24936,0.39313,0.39313,0,0,0-.35459.45725,0.37738,0.37738,0,0,0,.34969.43767A0.32346,0.32346,0,0,0,47.43461,13.99a0.374,0.374,0,0,0,.00979-0.093V13.69171Z" transform="translate(0.006 0.00318)"/>
          <path class="cls-2" d="M48.80926,13.87512l-0.17118.51831h-0.22l0.5599-1.648H49.2347l0.56247,1.648H49.56971l-0.17607-.51831H48.80926Zm0.54044-.16628-0.16139-.47437c-0.03671-.10767-0.06118-0.20543-0.08565-0.30075H49.09778c-0.02447.09776-.05127,0.198-0.08308,0.29831l-0.16139.47682h0.4964Z" transform="translate(0.006 0.00318)"/>
          <path class="cls-2" d="M50.0153,14.39343c0.00489-.08064.00979-0.20042,0.00979-0.30565V12.65732h0.21278v0.74343h0.00478a0.4408,0.4408,0,0,1,.40353-0.21767,0.531,0.531,0,0,1,.49885.604,0.56246,0.56246,0,0,1-.53066.63332,0.42141,0.42141,0,0,1-.39607-0.22245H50.21095l-0.00979.19553H50.0153Zm0.22256-.47437a0.40322,0.40322,0,0,0,.00967.07831,0.332,0.332,0,0,0,.32278.25181,0.45927,0.45927,0,0,0,.00734-0.89492,0.34306,0.34306,0,0,0-.32767.264,0.425,0.425,0,0,0-.01212.08809v0.21266Z" transform="translate(0.006 0.00318)"/>
          <path class="cls-2" d="M51.65633,12.87743a0.13325,0.13325,0,0,1-.26649,0A0.13109,0.13109,0,0,1,51.5243,12.743,0.12763,0.12763,0,0,1,51.65633,12.87743Zm-0.23958,1.516V13.21h0.21511v1.18343H51.41675Z" transform="translate(0.006 0.00318)"/>
          <path class="cls-2" d="M52.1088,13.84086a0.37915,0.37915,0,0,0,.406.41075,0.779,0.779,0,0,0,.32755-0.06106l0.03671,0.154a0.96013,0.96013,0,0,1-.39362.07329,0.54959,0.54959,0,0,1-.582-0.59661,0.57455,0.57455,0,0,1,.55513-0.63821,0.50144,0.50144,0,0,1,.48906.55746,0.81219,0.81219,0,0,1-.00734.10033H52.1088Zm0.63087-.154a0.30642,0.30642,0,0,0-.29831-0.34969,0.35663,0.35663,0,0,0-.33012.34969h0.62842Z" transform="translate(0.006 0.00318)"/>
          <path class="cls-2" d="M53.21439,13.57915c0-.13936-0.00245-0.25915-0.00979-0.36915h0.18831l0.00734,0.23224H53.41a0.35487,0.35487,0,0,1,.32767-0.25915,0.23263,0.23263,0,0,1,.06106.00734v0.203a0.32312,0.32312,0,0,0-.07329-0.00734,0.30193,0.30193,0,0,0-.28863.27628,0.6066,0.6066,0,0,0-.00967.10021v0.63087H53.21439V13.57915Z" transform="translate(0.006 0.00318)"/>
          <path class="cls-2" d="M54.332,12.87009V13.21h0.30809v0.16383H54.332V14.012c0,0.14671.0416,0.22979,0.16139,0.22979a0.47727,0.47727,0,0,0,.12468-0.01468l0.00979,0.16139a0.52571,0.52571,0,0,1-.19064.02936,0.29849,0.29849,0,0,1-.23235-0.09042,0.43831,0.43831,0,0,1-.08308-0.30809V13.37383H53.93836V13.21h0.18341V12.92637Z" transform="translate(0.006 0.00318)"/>
          <path class="cls-2" d="M55.53779,14.39343l-0.01713-.14915H55.51332a0.44076,0.44076,0,0,1-.36193.17607,0.33725,0.33725,0,0,1-.36193-0.3399c0-.28607.25437-0.44256,0.71162-0.44012V13.61585a0.244,0.244,0,0,0-.26894-0.27383,0.59,0.59,0,0,0-.30809.088l-0.04894-.14181a0.7348,0.7348,0,0,1,.38873-0.10511,0.42,0.42,0,0,1,.45.48416V14.1098a1.67755,1.67755,0,0,0,.01946.28362H55.53779Zm-0.03181-.604c-0.2348-.00489-0.50129.03671-0.50129,0.26649a0.19038,0.19038,0,0,0,.203.20543,0.29438,0.29438,0,0,0,.28607-0.19809,0.22341,0.22341,0,0,0,.01224-0.0684V13.78948Z" transform="translate(0.006 0.00318)"/>
          <path class="cls-2" d="M56.65795,13.21l0.25927,0.69927c0.02692,0.07831.05617,0.17118,0.07574,0.24214h0.00489c0.022-.071.04649-0.16139,0.07586-0.247L57.30839,13.21h0.22746l-0.32278.84353a1.80152,1.80152,0,0,1-.406.741,0.58312,0.58312,0,0,1-.264.13936l-0.05383-.181a0.56963,0.56963,0,0,0,.18831-0.10511,0.65323,0.65323,0,0,0,.181-0.23969,0.15458,0.15458,0,0,0,.01713-0.05139,0.18809,0.18809,0,0,0-.01468-0.05617L56.42327,13.21h0.23468Z" transform="translate(0.006 0.00318)"/>
        </g>
        <g>
          <path class="cls-2" d="M27.92162,16.55579H27.281V17.15H27.995v0.17852H27.0683v-1.648h0.89V15.859H27.281v0.52075h0.64066v0.17607Z" transform="translate(0.006 0.00318)"/>
          <path class="cls-2" d="M29.27657,15.59236v1.43047c0,0.10522.00245,0.225,0.00979,0.30565h-0.1932l-0.00967-.20532H29.0786a0.43789,0.43789,0,0,1-.40353.23224,0.53953,0.53953,0,0,1-.50619-0.6015,0.56614,0.56614,0,0,1,.53066-0.63576,0.39565,0.39565,0,0,1,.357.181h0.00489V15.59236h0.21511Zm-0.21511,1.0344a0.38012,0.38012,0,0,0-.00979-0.09054,0.31645,0.31645,0,0,0-.31054-0.24936,0.39313,0.39313,0,0,0-.35459.45725,0.37738,0.37738,0,0,0,.34969.43767,0.32346,0.32346,0,0,0,.31543-0.25671,0.374,0.374,0,0,0,.00979-0.093V16.62675Z" transform="translate(0.006 0.00318)"/>
          <path class="cls-2" d="M30.62431,17.00569c0,0.12235.00245,0.2299,0.00967,0.32278H30.44334l-0.01224-.1932H30.42621a0.44528,0.44528,0,0,1-.39129.22012,0.42228,0.42228,0,0,1-.40831-0.51842V16.145h0.21522v0.65534c0,0.22489.0684,0.37649,0.264,0.37649a0.30279,0.30279,0,0,0,.3032-0.30565V16.145h0.21522v0.86066Z" transform="translate(0.006 0.00318)"/>
          <path class="cls-2" d="M31.82522,17.28454a0.79342,0.79342,0,0,1-.33979.0684,0.56228,0.56228,0,0,1-.58939-0.604,0.60135,0.60135,0,0,1,.63576-0.62842,0.71813,0.71813,0,0,1,.29831.06118l-0.04882.16628a0.49885,0.49885,0,0,0-.24948-0.05628,0.44616,0.44616,0,0,0-.00734.89,0.61308,0.61308,0,0,0,.26416-0.05861Z" transform="translate(0.006 0.00318)"/>
          <path class="cls-2" d="M32.73272,17.32847l-0.01713-.14915H32.70825a0.44076,0.44076,0,0,1-.36193.17607,0.33725,0.33725,0,0,1-.36193-0.3399c0-.28607.25437-0.44256,0.71162-0.44012V16.5509a0.244,0.244,0,0,0-.26894-0.27383,0.59,0.59,0,0,0-.30809.088L32.07,16.22323a0.7348,0.7348,0,0,1,.38873-0.10511,0.42,0.42,0,0,1,.45.48416v0.44256a1.67755,1.67755,0,0,0,.01946.28362H32.73272Zm-0.03181-.604c-0.2348-.00489-0.50129.03671-0.50129,0.26649a0.19038,0.19038,0,0,0,.203.20543,0.29438,0.29438,0,0,0,.28607-0.19809,0.22341,0.22341,0,0,0,.01224-0.0684V16.72452Z" transform="translate(0.006 0.00318)"/>
          <path class="cls-2" d="M34.09979,17.28454a0.79342,0.79342,0,0,1-.33979.0684,0.56228,0.56228,0,0,1-.58939-0.604,0.60135,0.60135,0,0,1,.63576-0.62842,0.71813,0.71813,0,0,1,.29831.06118l-0.04882.16628a0.49885,0.49885,0,0,0-.24948-0.05628,0.44616,0.44616,0,0,0-.00734.89,0.61308,0.61308,0,0,0,.26416-0.05861Z" transform="translate(0.006 0.00318)"/>
          <path class="cls-2" d="M34.59165,15.81247a0.13325,0.13325,0,0,1-.26649,0,0.13109,0.13109,0,0,1,.13447-0.13447A0.12763,0.12763,0,0,1,34.59165,15.81247Zm-0.23958,1.516V16.145h0.21511v1.18343H34.35207Z" transform="translate(0.006 0.00318)"/>
          <path class="cls-2" d="M35.99531,16.727a0.57841,0.57841,0,0,1-.58927.62842,0.56268,0.56268,0,0,1-.56736-0.60885,0.578,0.578,0,0,1,.58694-0.62842A0.56043,0.56043,0,0,1,35.99531,16.727Zm-0.939.01224a0.3699,0.3699,0,1,0,.36437-0.45969A0.40288,0.40288,0,0,0,35.05635,16.7392ZM35.73861,15.634l-0.29831.34969h-0.154l0.21511-.34969h0.23725Z" transform="translate(0.006 0.00318)"/>
          <path class="cls-2" d="M36.26717,16.46537c0-.12224-0.00245-0.22256-0.00979-0.32033h0.19075l0.01224,0.19565h0.00489a0.43485,0.43485,0,0,1,.39118-0.22256,0.42909,0.42909,0,0,1,.41809.50374v0.70661H37.05942V16.64633a0.28883,0.28883,0,0,0-.27383-0.34969,0.30573,0.30573,0,0,0-.28863.22,0.30963,0.30963,0,0,0-.01468.10033v0.7115H36.26717v-0.8631Z" transform="translate(0.006 0.00318)"/>
          <path class="cls-2" d="M38.79845,17.32847l-0.01713-.14915H38.774a0.44076,0.44076,0,0,1-.36193.17607,0.33725,0.33725,0,0,1-.36193-0.3399c0-.28607.25437-0.44256,0.71162-0.44012V16.5509a0.244,0.244,0,0,0-.26894-0.27383,0.59,0.59,0,0,0-.30809.088l-0.04894-.14181a0.7348,0.7348,0,0,1,.38873-0.10511,0.42,0.42,0,0,1,.45.48416v0.44256a1.67755,1.67755,0,0,0,.01946.28362H38.79845Zm-0.03181-.604c-0.2348-.00489-0.50129.03671-0.50129,0.26649a0.19038,0.19038,0,0,0,.203.20543,0.29438,0.29438,0,0,0,.28607-0.19809,0.22341,0.22341,0,0,0,.01224-0.0684V16.72452Z" transform="translate(0.006 0.00318)"/>
          <path class="cls-2" d="M39.84787,15.70247a3.04441,3.04441,0,0,1,.45235-0.03426,0.94344,0.94344,0,0,1,.66757.20543,0.75888,0.75888,0,0,1,.23224.59172,0.87169,0.87169,0,0,1-.23713.64066,1.01544,1.01544,0,0,1-.72875.23713,3.42952,3.42952,0,0,1-.38628-0.01958v-1.6211Zm0.21266,1.45727a1.34366,1.34366,0,0,0,.21522.01224,0.63352,0.63352,0,0,0,.70183-0.69927A0.58787,0.58787,0,0,0,40.31,15.83694a1.2092,1.2092,0,0,0-.24948.022v1.30077Z" transform="translate(0.006 0.00318)"/>
          <path class="cls-2" d="M41.709,15.81247a0.13325,0.13325,0,0,1-.26649,0A0.13109,0.13109,0,0,1,41.577,15.678,0.12763,0.12763,0,0,1,41.709,15.81247Zm-0.23958,1.516V16.145h0.21511v1.18343H41.46944Z" transform="translate(0.006 0.00318)"/>
          <path class="cls-2" d="M42.01233,17.10847a0.565,0.565,0,0,0,.28362.08553,0.19112,0.19112,0,0,0,.2299-0.17607,0.24313,0.24313,0,0,0-.22012-0.21755,0.38011,0.38011,0,0,1-.313-0.335,0.365,0.365,0,0,1,.40842-0.34725,0.59052,0.59052,0,0,1,.291.07341l-0.05383.15649a0.46034,0.46034,0,0,0-.242-0.06852,0.17268,0.17268,0,0,0-.19809.16139c0,0.09776.07085,0.14181,0.22489,0.20054a0.36212,0.36212,0,1,1-.132.7115,0.67608,0.67608,0,0,1-.33256-0.08064Z" transform="translate(0.006 0.00318)"/>
          <path class="cls-2" d="M43.26941,15.80513V16.145H43.5775v0.16383H43.26941v0.63821c0,0.14671.0416,0.22979,0.16139,0.22979a0.47727,0.47727,0,0,0,.12468-0.01468l0.00979,0.16139a0.52571,0.52571,0,0,1-.19064.02936,0.29849,0.29849,0,0,1-.23235-0.09042,0.43831,0.43831,0,0,1-.08308-0.30809V16.30887H42.87579V16.145H43.0592V15.86141Z" transform="translate(0.006 0.00318)"/>
          <path class="cls-2" d="M44.47522,17.32847l-0.01713-.14915H44.45075a0.44076,0.44076,0,0,1-.36193.17607,0.33725,0.33725,0,0,1-.36193-0.3399c0-.28607.25437-0.44256,0.71162-0.44012V16.5509a0.244,0.244,0,0,0-.26894-0.27383,0.59,0.59,0,0,0-.30809.088l-0.04894-.14181a0.7348,0.7348,0,0,1,.38873-0.10511,0.42,0.42,0,0,1,.45.48416v0.44256a1.67755,1.67755,0,0,0,.01946.28362H44.47522Zm-0.03181-.604c-0.2348-.00489-0.50129.03671-0.50129,0.26649a0.19038,0.19038,0,0,0,.203.20543,0.29438,0.29438,0,0,0,.28607-0.19809A0.22341,0.22341,0,0,0,44.4434,16.93V16.72452Z" transform="translate(0.006 0.00318)"/>
          <path class="cls-2" d="M44.99876,16.46537c0-.12224-0.00245-0.22256-0.00979-0.32033h0.19075L45.192,16.34068h0.00489a0.43485,0.43485,0,0,1,.39118-0.22256,0.42909,0.42909,0,0,1,.41809.50374v0.70661H45.791V16.64633a0.28883,0.28883,0,0,0-.27383-0.34969,0.30573,0.30573,0,0,0-.28863.22,0.30963,0.30963,0,0,0-.01468.10033v0.7115H44.99876v-0.8631Z" transform="translate(0.006 0.00318)"/>
          <path class="cls-2" d="M47.1997,17.28454a0.79342,0.79342,0,0,1-.33979.0684,0.56228,0.56228,0,0,1-.58939-0.604,0.60135,0.60135,0,0,1,.63576-0.62842,0.71813,0.71813,0,0,1,.29831.06118l-0.04882.16628a0.49885,0.49885,0,0,0-.24948-0.05628,0.44616,0.44616,0,0,0-.00734.89,0.61308,0.61308,0,0,0,.26416-0.05861Z" transform="translate(0.006 0.00318)"/>
          <path class="cls-2" d="M47.69155,15.81247a0.13325,0.13325,0,0,1-.26649,0,0.13109,0.13109,0,0,1,.13447-0.13447A0.12763,0.12763,0,0,1,47.69155,15.81247Zm-0.23958,1.516V16.145h0.21511v1.18343H47.452Z" transform="translate(0.006 0.00318)"/>
          <path class="cls-2" d="M48.67957,17.32847l-0.01713-.14915H48.6551a0.44076,0.44076,0,0,1-.36193.17607,0.33725,0.33725,0,0,1-.36193-0.3399c0-.28607.25437-0.44256,0.71162-0.44012V16.5509a0.244,0.244,0,0,0-.26894-0.27383,0.59,0.59,0,0,0-.30809.088l-0.04894-.14181a0.7348,0.7348,0,0,1,.38873-0.10511,0.42,0.42,0,0,1,.45.48416v0.44256a1.67755,1.67755,0,0,0,.01946.28362H48.67957Zm-0.03181-.604c-0.2348-.00489-0.50129.03671-0.50129,0.26649a0.19038,0.19038,0,0,0,.203.20543,0.29438,0.29438,0,0,0,.28607-0.19809,0.22341,0.22341,0,0,0,.01224-0.0684V16.72452Z" transform="translate(0.006 0.00318)"/>
        </g>
      </g>
    </g>
  </g>
</svg>
