<svg id="Capa_1" data-name="Capa 1" xmlns="http://www.w3.org/2000/svg" viewBox="0 0 217 68.44">
  <defs>
    <style>
      .cls-1 {
        fill: #fff;
      }
    </style>
  </defs>
  <title>Sin título-1</title>
  <g>
    <g>
      <circle class="cls-1" cx="37.16" cy="3.89" r="1.59"/>
      <path class="cls-1" d="M34,72.16A27.2,27.2,0,0,1,7.15,49.22L0,49.08A34.22,34.22,0,0,0,34,79.22V72.16Zm0-61.37A34.22,34.22,0,0,0,.08,40.28l7.15,0A27.2,27.2,0,0,1,34,17.84V10.78Z" transform="translate(0 -10.78)"/>
      <circle class="cls-1" cx="4.08" cy="34.45" r="1.59"/>
      <circle class="cls-1" cx="37.16" cy="66.23" r="1.59"/>
      <path class="cls-1" d="M34,23.33A21.63,21.63,0,0,1,55.32,41.57L61,41.68a27.22,27.22,0,0,0-27-24v5.62Zm0,48.82a27.22,27.22,0,0,0,27-23.46l-5.69,0A21.63,21.63,0,0,1,34,66.53v5.62Z" transform="translate(0 -10.78)"/>
      <circle class="cls-1" cx="58.42" cy="34.45" r="1.82"/>
    </g>
    <path class="cls-1" d="M44.65,47.6l-2-1.16a11.93,11.93,0,1,1,0-2.86l2-1.16,3.51-2a18,18,0,1,0,0,9.23Z" transform="translate(0 -10.78)"/>
    <circle class="cls-1" cx="30.5" cy="34.23" r="4.08"/>
    <g>
      <path class="cls-1" d="M210.17,47.14H214c1.16,0,1.74-.44,1.74-1.22s-0.56-1.24-1.74-1.24h-3.87V43.17h3.77c2.07,0,3.06,1,3.06,2.8s-0.94,2.69-3.08,2.69h-3.75V47.14Z" transform="translate(0 -10.78)"/>
      <path class="cls-1" d="M216.89,40.69h-6.72V38.92l2.46-1.4a19.46,19.46,0,0,1,2.3-1.1v0a24.92,24.92,0,0,1-2.8.13h-2v-1.4h6.72v1.59l-2.59,1.44a25,25,0,0,1-2.37,1.17v0c0.89,0,1.83-.06,2.93-0.06h2v1.4Z" transform="translate(0 -10.78)"/>
      <path class="cls-1" d="M215.17,30.92l1.72,0.48V33l-6.72-2.05v-2l6.72-2.08v1.63l-1.72.52v1.92ZM214,29.22l-1.43.42c-0.4.12-.9,0.24-1.3,0.34v0c0.4,0.1.91,0.2,1.3,0.31L214,30.7V29.22Z" transform="translate(0 -10.78)"/>
      <path class="cls-1" d="M214.32,19.78c-0.81,0-1.78.06-2.76,0.06v0c0.86,0.21,1.81.49,2.6,0.75l2.62,0.82v1.19l-2.6.72c-0.79.22-1.74,0.45-2.62,0.61v0c0.91,0,1.94.07,2.78,0.12l2.55,0.12v1.41l-6.72-.43v-2l2.24-.66c0.78-.21,1.61-0.42,2.4-0.57v0c-0.78-.19-1.66-0.42-2.41-0.64l-2.23-.72v-2l6.72-.37v1.49Z" transform="translate(0 -10.78)"/>
    </g>
    <g>
      <g>
        <path class="cls-1" d="M96,41.3a15,15,0,0,1-2.5,3.37,16.55,16.55,0,0,1-3.28,2.58A16,16,0,0,1,82,49.52a15.44,15.44,0,0,1-6.22-1.27,16.24,16.24,0,0,1-8.55-8.55,15.87,15.87,0,0,1,0-12.45,16.24,16.24,0,0,1,8.55-8.55A15.43,15.43,0,0,1,82,17.43a16,16,0,0,1,8.23,2.27,16.56,16.56,0,0,1,3.28,2.58A15.43,15.43,0,0,1,96,25.6l-5.55,2.24a11.84,11.84,0,0,0-1.59-1.9,11.52,11.52,0,0,0-2-1.57,10.24,10.24,0,0,0-2.33-1.06A8.53,8.53,0,0,0,82,22.93a9.17,9.17,0,0,0-4,.87,10.49,10.49,0,0,0-3.2,2.31,11.1,11.1,0,0,0-2.16,3.37,10.41,10.41,0,0,0,0,8,11.15,11.15,0,0,0,2.16,3.34,10.46,10.46,0,0,0,3.2,2.31A9.16,9.16,0,0,0,82,44a8.54,8.54,0,0,0,2.54-.38,10.22,10.22,0,0,0,2.33-1.06,11,11,0,0,0,2-1.59,12.62,12.62,0,0,0,1.59-1.93Z" transform="translate(0 -10.78)"/>
        <path class="cls-1" d="M110.92,49.47a15.3,15.3,0,0,1-5.46-.93,12,12,0,0,1-4.19-2.62,11.58,11.58,0,0,1-2.69-4.11,14.52,14.52,0,0,1-1-5.38V18h5.93V36.41a8.57,8.57,0,0,0,.76,3.85,7,7,0,0,0,1.88,2.41,6.52,6.52,0,0,0,2.41,1.23,8,8,0,0,0,4.61,0,6.53,6.53,0,0,0,2.41-1.23,7,7,0,0,0,1.88-2.41,8.57,8.57,0,0,0,.76-3.85V18h5.93V36.44a14.82,14.82,0,0,1-.93,5.38,11.37,11.37,0,0,1-2.67,4.11,12,12,0,0,1-4.19,2.62A15.43,15.43,0,0,1,110.92,49.47Z" transform="translate(0 -10.78)"/>
        <path class="cls-1" d="M121.92,48.92L137.75,18h0.59l15.83,30.94h-6.44l-2.41-4.87h-14.6l-2.37,4.87h-6.44Zm11.68-10h8.85L138,29.54Z" transform="translate(0 -10.78)"/>
        <path class="cls-1" d="M160.79,23.19v7.75h15v5.38h-15v7.28h16.89v5.33H154.87v-31h22.82v5.25H160.79Z" transform="translate(0 -10.78)"/>
        <path class="cls-1" d="M191.06,48.92H178.84v-31h12.21A15.56,15.56,0,0,1,202,21.83a13.28,13.28,0,0,1,3.44,5,17.78,17.78,0,0,1,1.16,6.58,17.9,17.9,0,0,1-1.16,6.63,13.27,13.27,0,0,1-3.44,5A13.85,13.85,0,0,1,197.12,48,18.15,18.15,0,0,1,191.06,48.92Zm-6.29-5.25h6.31a15.21,15.21,0,0,0,3.34-.38,7.36,7.36,0,0,0,3.07-1.5,8.28,8.28,0,0,0,2.26-3.11,12.89,12.89,0,0,0,.89-5.21,13,13,0,0,0-.89-5.23,8,8,0,0,0-2.29-3.11,7.67,7.67,0,0,0-3.09-1.48,15,15,0,0,0-3.3-.38h-6.31v20.4Z" transform="translate(0 -10.78)"/>
      </g>
      <g>
        <g>
          <path class="cls-1" d="M70.47,62.18a3.79,3.79,0,0,1-1.56.28,2.76,2.76,0,0,1-2.92-3,2.94,2.94,0,0,1,3.08-3.1,3.17,3.17,0,0,1,1.4.26l-0.18.62A2.78,2.78,0,0,0,69.1,57a2.2,2.2,0,0,0-2.3,2.44,2.15,2.15,0,0,0,2.27,2.37,3.06,3.06,0,0,0,1.24-.25Z" transform="translate(0 -10.78)"/>
          <path class="cls-1" d="M75.14,60.22A2.07,2.07,0,0,1,73,62.47a2,2,0,0,1-2-2.18A2.07,2.07,0,0,1,73.1,58,2,2,0,0,1,75.14,60.22Zm-3.36,0a1.33,1.33,0,1,0,1.31-1.65A1.44,1.44,0,0,0,71.77,60.26Z" transform="translate(0 -10.78)"/>
          <path class="cls-1" d="M80,60.22a2.07,2.07,0,0,1-2.11,2.25,2,2,0,0,1-2-2.18A2.07,2.07,0,0,1,77.91,58,2,2,0,0,1,80,60.22Zm-3.36,0a1.33,1.33,0,1,0,1.31-1.65A1.44,1.44,0,0,0,76.59,60.26Z" transform="translate(0 -10.78)"/>
          <path class="cls-1" d="M80.92,59.46c0-.5,0-0.93,0-1.32h0.67l0,0.83h0A1.27,1.27,0,0,1,82.8,58a0.83,0.83,0,0,1,.22,0v0.73a1.16,1.16,0,0,0-.26,0,1.08,1.08,0,0,0-1,1,2.17,2.17,0,0,0,0,.36v2.26H80.92V59.46Z" transform="translate(0 -10.78)"/>
          <path class="cls-1" d="M87.37,56.15v5.13c0,0.38,0,.81,0,1.1H86.71l0-.74h0a1.57,1.57,0,0,1-1.45.83,1.93,1.93,0,0,1-1.81-2.16A2,2,0,0,1,85.3,58a1.42,1.42,0,0,1,1.28.65h0V56.15h0.77ZM86.6,59.86a1.36,1.36,0,0,0,0-.32,1.13,1.13,0,0,0-1.11-.89,1.41,1.41,0,0,0-1.27,1.64,1.35,1.35,0,0,0,1.25,1.57,1.16,1.16,0,0,0,1.13-.92,1.34,1.34,0,0,0,0-.33V59.86Z" transform="translate(0 -10.78)"/>
          <path class="cls-1" d="M89.51,56.94a0.48,0.48,0,0,1-1,0A0.47,0.47,0,0,1,89,56.46,0.46,0.46,0,0,1,89.51,56.94Zm-0.86,5.43V58.13h0.77v4.24H88.65Z" transform="translate(0 -10.78)"/>
          <path class="cls-1" d="M90.7,59.28c0-.44,0-0.8,0-1.15h0.68l0,0.7h0a1.56,1.56,0,0,1,1.4-.8,1.54,1.54,0,0,1,1.5,1.81v2.53H93.54V59.93a1,1,0,0,0-1-1.25,1.1,1.1,0,0,0-1,.79,1.11,1.11,0,0,0-.05.36v2.55H90.7V59.28Z" transform="translate(0 -10.78)"/>
          <path class="cls-1" d="M97.91,62.38l-0.06-.53h0a1.58,1.58,0,0,1-1.3.63,1.21,1.21,0,0,1-1.3-1.22c0-1,.91-1.59,2.55-1.58V59.59a0.87,0.87,0,0,0-1-1,2.11,2.11,0,0,0-1.1.32l-0.18-.51A2.63,2.63,0,0,1,96.93,58a1.5,1.5,0,0,1,1.61,1.74v1.59a6,6,0,0,0,.07,1h-0.7ZM97.8,60.21c-0.84,0-1.8.13-1.8,1a0.68,0.68,0,0,0,.73.74,1.05,1.05,0,0,0,1-.71,0.8,0.8,0,0,0,0-.25V60.21Z" transform="translate(0 -10.78)"/>
          <path class="cls-1" d="M102.81,62.22a2.84,2.84,0,0,1-1.22.25,2,2,0,0,1-2.11-2.16A2.16,2.16,0,0,1,101.76,58a2.57,2.57,0,0,1,1.07.22l-0.17.6a1.79,1.79,0,0,0-.89-0.2,1.6,1.6,0,0,0,0,3.19,2.2,2.2,0,0,0,.95-0.21Z" transform="translate(0 -10.78)"/>
          <path class="cls-1" d="M104.57,56.94a0.48,0.48,0,0,1-1,0,0.47,0.47,0,0,1,.48-0.48A0.46,0.46,0,0,1,104.57,56.94Zm-0.86,5.43V58.13h0.77v4.24h-0.77Z" transform="translate(0 -10.78)"/>
          <path class="cls-1" d="M109.6,60.22a2.07,2.07,0,0,1-2.11,2.25,2,2,0,0,1-2-2.18,2.07,2.07,0,0,1,2.1-2.25A2,2,0,0,1,109.6,60.22Zm-3.36,0a1.33,1.33,0,1,0,1.31-1.65A1.44,1.44,0,0,0,106.24,60.26Zm2.44-4-1.07,1.25h-0.55l0.77-1.25h0.85Z" transform="translate(0 -10.78)"/>
          <path class="cls-1" d="M110.58,59.28c0-.44,0-0.8,0-1.15h0.68l0,0.7h0a1.56,1.56,0,0,1,1.4-.8,1.54,1.54,0,0,1,1.5,1.81v2.53h-0.77V59.93a1,1,0,0,0-1-1.25,1.1,1.1,0,0,0-1,.79,1.11,1.11,0,0,0-.05.36v2.55h-0.77V59.28Z" transform="translate(0 -10.78)"/>
          <path class="cls-1" d="M121,56.15v5.13c0,0.38,0,.81,0,1.1h-0.69l0-.74h0a1.57,1.57,0,0,1-1.45.83A1.93,1.93,0,0,1,117,60.32a2,2,0,0,1,1.9-2.28,1.42,1.42,0,0,1,1.28.65h0V56.15H121Zm-0.77,3.71a1.36,1.36,0,0,0,0-.32,1.13,1.13,0,0,0-1.11-.89,1.41,1.41,0,0,0-1.27,1.64A1.35,1.35,0,0,0,119,61.85a1.16,1.16,0,0,0,1.13-.92,1.34,1.34,0,0,0,0-.33V59.86Z" transform="translate(0 -10.78)"/>
          <path class="cls-1" d="M122.67,60.4a1.36,1.36,0,0,0,1.45,1.47,2.79,2.79,0,0,0,1.17-.22l0.13,0.55a3.44,3.44,0,0,1-1.41.26,2,2,0,0,1-2.09-2.14,2.06,2.06,0,0,1,2-2.29,1.8,1.8,0,0,1,1.75,2,2.91,2.91,0,0,1,0,.36h-3Zm2.26-.55a1.1,1.1,0,0,0-1.07-1.25,1.28,1.28,0,0,0-1.18,1.25h2.25Z" transform="translate(0 -10.78)"/>
          <path class="cls-1" d="M129.28,56.47V60c0,1.32.59,1.88,1.38,1.88s1.44-.58,1.44-1.88v-3.5h0.77v3.44c0,1.81-1,2.56-2.23,2.56s-2.12-.69-2.12-2.52V56.47h0.77Z" transform="translate(0 -10.78)"/>
          <path class="cls-1" d="M134.16,59.28c0-.44,0-0.8,0-1.15h0.68l0,0.7h0a1.56,1.56,0,0,1,1.4-.8,1.54,1.54,0,0,1,1.5,1.81v2.53H137V59.93a1,1,0,0,0-1-1.25,1.1,1.1,0,0,0-1,.79,1.11,1.11,0,0,0-.05.36v2.55h-0.77V59.28Z" transform="translate(0 -10.78)"/>
          <path class="cls-1" d="M139.89,56.94a0.48,0.48,0,0,1-1,0,0.47,0.47,0,0,1,.48-0.48A0.46,0.46,0,0,1,139.89,56.94ZM139,62.38V58.13h0.77v4.24H139Z" transform="translate(0 -10.78)"/>
          <path class="cls-1" d="M141.38,58.13l0.83,2.38a10.86,10.86,0,0,1,.34,1.09h0c0.1-.35.22-0.7,0.36-1.09l0.82-2.38h0.81l-1.66,4.24h-0.74l-1.61-4.24h0.82Z" transform="translate(0 -10.78)"/>
          <path class="cls-1" d="M145.64,60.4a1.36,1.36,0,0,0,1.45,1.47,2.79,2.79,0,0,0,1.17-.22l0.13,0.55a3.44,3.44,0,0,1-1.41.26,2,2,0,0,1-2.09-2.14,2.06,2.06,0,0,1,2-2.29,1.8,1.8,0,0,1,1.75,2,2.91,2.91,0,0,1,0,.36h-3Zm2.26-.55a1.1,1.1,0,0,0-1.07-1.25,1.28,1.28,0,0,0-1.18,1.25h2.25Z" transform="translate(0 -10.78)"/>
          <path class="cls-1" d="M149.6,59.46c0-.5,0-0.93,0-1.32h0.67l0,0.83h0a1.27,1.27,0,0,1,1.17-.93,0.83,0.83,0,0,1,.22,0v0.73a1.16,1.16,0,0,0-.26,0,1.08,1.08,0,0,0-1,1,2.17,2.17,0,0,0,0,.36v2.26H149.6V59.46Z" transform="translate(0 -10.78)"/>
          <path class="cls-1" d="M152.36,61.59a2,2,0,0,0,1,.31,0.68,0.68,0,0,0,.82-0.63,0.87,0.87,0,0,0-.79-0.78,1.36,1.36,0,0,1-1.12-1.2A1.31,1.31,0,0,1,153.75,58a2.12,2.12,0,0,1,1,.26l-0.19.56a1.65,1.65,0,0,0-.87-0.25,0.62,0.62,0,0,0-.71.58c0,0.35.25,0.51,0.81,0.72a1.3,1.3,0,1,1-.47,2.55,2.42,2.42,0,0,1-1.19-.29Z" transform="translate(0 -10.78)"/>
          <path class="cls-1" d="M156.8,56.94a0.48,0.48,0,0,1-1,0,0.47,0.47,0,0,1,.48-0.48A0.46,0.46,0,0,1,156.8,56.94Zm-0.86,5.43V58.13h0.77v4.24h-0.77Z" transform="translate(0 -10.78)"/>
          <path class="cls-1" d="M161.65,56.15v5.13c0,0.38,0,.81,0,1.1H161l0-.74h0a1.57,1.57,0,0,1-1.45.83,1.93,1.93,0,0,1-1.81-2.16,2,2,0,0,1,1.9-2.28,1.42,1.42,0,0,1,1.28.65h0V56.15h0.77Zm-0.77,3.71a1.36,1.36,0,0,0,0-.32,1.13,1.13,0,0,0-1.11-.89,1.41,1.41,0,0,0-1.27,1.64,1.35,1.35,0,0,0,1.25,1.57,1.16,1.16,0,0,0,1.13-.92,1.34,1.34,0,0,0,0-.33V59.86Z" transform="translate(0 -10.78)"/>
          <path class="cls-1" d="M165.28,62.38l-0.06-.53h0a1.58,1.58,0,0,1-1.3.63,1.21,1.21,0,0,1-1.3-1.22c0-1,.91-1.59,2.55-1.58V59.59a0.87,0.87,0,0,0-1-1,2.11,2.11,0,0,0-1.1.32l-0.18-.51A2.63,2.63,0,0,1,164.3,58a1.5,1.5,0,0,1,1.61,1.74v1.59a6,6,0,0,0,.07,1h-0.7Zm-0.11-2.16c-0.84,0-1.8.13-1.8,1a0.68,0.68,0,0,0,.73.74,1.05,1.05,0,0,0,1-.71,0.8,0.8,0,0,0,0-.25V60.21Z" transform="translate(0 -10.78)"/>
          <path class="cls-1" d="M170.82,56.15v5.13c0,0.38,0,.81,0,1.1h-0.69l0-.74h0a1.57,1.57,0,0,1-1.45.83,1.93,1.93,0,0,1-1.81-2.16,2,2,0,0,1,1.9-2.28,1.42,1.42,0,0,1,1.28.65h0V56.15h0.77ZM170,59.86a1.36,1.36,0,0,0,0-.32,1.13,1.13,0,0,0-1.11-.89,1.41,1.41,0,0,0-1.27,1.64,1.35,1.35,0,0,0,1.25,1.57,1.16,1.16,0,0,0,1.13-.92,1.34,1.34,0,0,0,0-.33V59.86Z" transform="translate(0 -10.78)"/>
          <path class="cls-1" d="M174.94,60.52l-0.61,1.86h-0.79l2-5.91h0.92l2,5.91h-0.82L177,60.52h-2.09Zm1.94-.6-0.58-1.7c-0.13-.39-0.22-0.74-0.31-1.08h0c-0.09.35-.18,0.71-0.3,1.07l-0.58,1.71h1.78Z" transform="translate(0 -10.78)"/>
          <path class="cls-1" d="M179.26,62.38c0-.29,0-0.72,0-1.1V56.15h0.76v2.66h0a1.58,1.58,0,0,1,1.45-.78,1.9,1.9,0,0,1,1.79,2.16,2,2,0,0,1-1.9,2.27,1.51,1.51,0,0,1-1.42-.8h0l0,0.7h-0.67Zm0.8-1.7a1.45,1.45,0,0,0,0,.28,1.19,1.19,0,0,0,1.16.9,1.65,1.65,0,0,0,0-3.21,1.23,1.23,0,0,0-1.17.95,1.52,1.52,0,0,0,0,.32v0.76Z" transform="translate(0 -10.78)"/>
          <path class="cls-1" d="M185.14,56.94a0.48,0.48,0,0,1-1,0,0.47,0.47,0,0,1,.48-0.48A0.46,0.46,0,0,1,185.14,56.94Zm-0.86,5.43V58.13h0.77v4.24h-0.77Z" transform="translate(0 -10.78)"/>
          <path class="cls-1" d="M186.76,60.4a1.36,1.36,0,0,0,1.45,1.47,2.79,2.79,0,0,0,1.17-.22l0.13,0.55a3.44,3.44,0,0,1-1.41.26A2,2,0,0,1,186,60.32,2.06,2.06,0,0,1,188,58a1.8,1.8,0,0,1,1.75,2,2.91,2.91,0,0,1,0,.36h-3Zm2.26-.55A1.1,1.1,0,0,0,188,58.59a1.28,1.28,0,0,0-1.18,1.25H189Z" transform="translate(0 -10.78)"/>
          <path class="cls-1" d="M190.73,59.46c0-.5,0-0.93,0-1.32h0.67l0,0.83h0A1.27,1.27,0,0,1,192.6,58a0.83,0.83,0,0,1,.22,0v0.73a1.16,1.16,0,0,0-.26,0,1.08,1.08,0,0,0-1,1,2.17,2.17,0,0,0,0,.36v2.26h-0.76V59.46Z" transform="translate(0 -10.78)"/>
          <path class="cls-1" d="M194.73,56.92v1.22h1.1v0.59h-1.1V61c0,0.53.15,0.82,0.58,0.82a1.71,1.71,0,0,0,.45-0.05l0,0.58a1.88,1.88,0,0,1-.68.11,1.07,1.07,0,0,1-.83-0.32A1.57,1.57,0,0,1,194,61V58.72h-0.66V58.13H194v-1Z" transform="translate(0 -10.78)"/>
          <path class="cls-1" d="M199.05,62.38L199,61.84h0a1.58,1.58,0,0,1-1.3.63,1.21,1.21,0,0,1-1.3-1.22c0-1,.91-1.59,2.55-1.58V59.59a0.87,0.87,0,0,0-1-1,2.11,2.11,0,0,0-1.1.32l-0.18-.51a2.63,2.63,0,0,1,1.39-.38,1.5,1.5,0,0,1,1.61,1.74v1.59a6,6,0,0,0,.07,1h-0.7Zm-0.11-2.16c-0.84,0-1.8.13-1.8,1a0.68,0.68,0,0,0,.73.74,1.05,1.05,0,0,0,1-.71,0.8,0.8,0,0,0,0-.25V60.21Z" transform="translate(0 -10.78)"/>
          <path class="cls-1" d="M203.07,58.13L204,60.64c0.1,0.28.2,0.61,0.27,0.87h0c0.08-.25.17-0.58,0.27-0.89l0.84-2.49h0.82l-1.16,3a6.46,6.46,0,0,1-1.45,2.66,2.09,2.09,0,0,1-.95.5l-0.19-.65a2,2,0,0,0,.67-0.38,2.34,2.34,0,0,0,.65-0.86,0.55,0.55,0,0,0,.06-0.18,0.67,0.67,0,0,0-.05-0.2l-1.57-3.91h0.84Z" transform="translate(0 -10.78)"/>
        </g>
        <g>
          <path class="cls-1" d="M100.08,70.12h-2.3v2.13h2.56v0.64H97V67h3.19v0.64H97.79v1.87h2.3v0.63Z" transform="translate(0 -10.78)"/>
          <path class="cls-1" d="M104.94,66.67V71.8c0,0.38,0,.81,0,1.1h-0.69l0-.74h0a1.57,1.57,0,0,1-1.45.83A1.93,1.93,0,0,1,101,70.83a2,2,0,0,1,1.9-2.28,1.42,1.42,0,0,1,1.28.65h0V66.67h0.77Zm-0.77,3.71a1.36,1.36,0,0,0,0-.32,1.13,1.13,0,0,0-1.11-.89,1.41,1.41,0,0,0-1.27,1.64A1.35,1.35,0,0,0,103,72.37a1.16,1.16,0,0,0,1.13-.92,1.34,1.34,0,0,0,0-.33V70.38Z" transform="translate(0 -10.78)"/>
          <path class="cls-1" d="M109.77,71.74c0,0.44,0,.82,0,1.16h-0.68l0-.69h0a1.6,1.6,0,0,1-1.4.79c-0.67,0-1.46-.37-1.46-1.86V68.65H107V71c0,0.81.25,1.35,0.95,1.35a1.09,1.09,0,0,0,1.09-1.1v-2.6h0.77v3.08Z" transform="translate(0 -10.78)"/>
          <path class="cls-1" d="M114.07,72.74a2.84,2.84,0,0,1-1.22.25,2,2,0,0,1-2.11-2.16A2.16,2.16,0,0,1,113,68.56a2.57,2.57,0,0,1,1.07.22l-0.17.6a1.79,1.79,0,0,0-.89-0.2,1.6,1.6,0,0,0,0,3.19,2.2,2.2,0,0,0,.95-0.21Z" transform="translate(0 -10.78)"/>
          <path class="cls-1" d="M117.33,72.89l-0.06-.53h0a1.58,1.58,0,0,1-1.3.63,1.21,1.21,0,0,1-1.3-1.22c0-1,.91-1.59,2.55-1.58V70.11a0.87,0.87,0,0,0-1-1,2.11,2.11,0,0,0-1.1.32L115,68.93a2.63,2.63,0,0,1,1.39-.38A1.5,1.5,0,0,1,118,70.29v1.59a6,6,0,0,0,.07,1h-0.7Zm-0.11-2.16c-0.84,0-1.8.13-1.8,1a0.68,0.68,0,0,0,.73.74,1.05,1.05,0,0,0,1-.71,0.8,0.8,0,0,0,0-.25V70.73Z" transform="translate(0 -10.78)"/>
          <path class="cls-1" d="M122.22,72.74A2.84,2.84,0,0,1,121,73a2,2,0,0,1-2.11-2.16,2.16,2.16,0,0,1,2.28-2.25,2.57,2.57,0,0,1,1.07.22l-0.17.6a1.79,1.79,0,0,0-.89-0.2,1.6,1.6,0,0,0,0,3.19,2.2,2.2,0,0,0,.95-0.21Z" transform="translate(0 -10.78)"/>
          <path class="cls-1" d="M124,67.46a0.48,0.48,0,0,1-1,0,0.47,0.47,0,0,1,.48-0.48A0.46,0.46,0,0,1,124,67.46Zm-0.86,5.43V68.65h0.77v4.24h-0.77Z" transform="translate(0 -10.78)"/>
          <path class="cls-1" d="M129,70.74A2.07,2.07,0,0,1,126.91,73a2,2,0,0,1-2-2.18,2.07,2.07,0,0,1,2.1-2.25A2,2,0,0,1,129,70.74Zm-3.36,0A1.33,1.33,0,1,0,127,69.13,1.44,1.44,0,0,0,125.65,70.78Zm2.44-4L127,68.07h-0.55l0.77-1.25h0.85Z" transform="translate(0 -10.78)"/>
          <path class="cls-1" d="M130,69.8c0-.44,0-0.8,0-1.15h0.68l0,0.7h0a1.56,1.56,0,0,1,1.4-.8,1.54,1.54,0,0,1,1.5,1.81v2.53h-0.77V70.45a1,1,0,0,0-1-1.25,1.1,1.1,0,0,0-1,.79,1.11,1.11,0,0,0-.05.36v2.55H130V69.8Z" transform="translate(0 -10.78)"/>
          <path class="cls-1" d="M139.06,72.89L139,72.36h0a1.58,1.58,0,0,1-1.3.63,1.21,1.21,0,0,1-1.3-1.22c0-1,.91-1.59,2.55-1.58V70.11a0.87,0.87,0,0,0-1-1,2.11,2.11,0,0,0-1.1.32l-0.18-.51a2.63,2.63,0,0,1,1.39-.38,1.5,1.5,0,0,1,1.61,1.74v1.59a6,6,0,0,0,.07,1h-0.7Zm-0.11-2.16c-0.84,0-1.8.13-1.8,1a0.68,0.68,0,0,0,.73.74,1.05,1.05,0,0,0,1-.71,0.8,0.8,0,0,0,0-.25V70.73Z" transform="translate(0 -10.78)"/>
          <path class="cls-1" d="M142.82,67.07a10.91,10.91,0,0,1,1.62-.12,3.38,3.38,0,0,1,2.39.74,2.72,2.72,0,0,1,.83,2.12,3.12,3.12,0,0,1-.85,2.3,3.64,3.64,0,0,1-2.61.85,12.29,12.29,0,0,1-1.38-.07V67.07Zm0.76,5.22a4.82,4.82,0,0,0,.77,0,2.27,2.27,0,0,0,2.52-2.51,2.11,2.11,0,0,0-2.39-2.28,4.33,4.33,0,0,0-.89.08v4.66Z" transform="translate(0 -10.78)"/>
          <path class="cls-1" d="M149.49,67.46a0.48,0.48,0,0,1-1,0A0.47,0.47,0,0,1,149,67,0.46,0.46,0,0,1,149.49,67.46Zm-0.86,5.43V68.65h0.77v4.24h-0.77Z" transform="translate(0 -10.78)"/>
          <path class="cls-1" d="M150.58,72.11a2,2,0,0,0,1,.31,0.68,0.68,0,0,0,.82-0.63,0.87,0.87,0,0,0-.79-0.78,1.36,1.36,0,0,1-1.12-1.2A1.31,1.31,0,0,1,152,68.56a2.12,2.12,0,0,1,1,.26l-0.19.56a1.65,1.65,0,0,0-.87-0.25,0.62,0.62,0,0,0-.71.58c0,0.35.25,0.51,0.81,0.72a1.3,1.3,0,1,1-.47,2.55,2.42,2.42,0,0,1-1.19-.29Z" transform="translate(0 -10.78)"/>
          <path class="cls-1" d="M155.09,67.43v1.22h1.1v0.59h-1.1v2.29c0,0.53.15,0.82,0.58,0.82a1.71,1.71,0,0,0,.45-0.05l0,0.58a1.88,1.88,0,0,1-.68.11,1.07,1.07,0,0,1-.83-0.32,1.57,1.57,0,0,1-.3-1.1V69.24h-0.66V68.65h0.66v-1Z" transform="translate(0 -10.78)"/>
          <path class="cls-1" d="M159.41,72.89l-0.06-.53h0A1.58,1.58,0,0,1,158,73a1.21,1.21,0,0,1-1.3-1.22c0-1,.91-1.59,2.55-1.58V70.11a0.87,0.87,0,0,0-1-1,2.11,2.11,0,0,0-1.1.32L157,68.93a2.63,2.63,0,0,1,1.39-.38A1.5,1.5,0,0,1,160,70.29v1.59a6,6,0,0,0,.07,1h-0.7Zm-0.11-2.16c-0.84,0-1.8.13-1.8,1a0.68,0.68,0,0,0,.73.74,1.05,1.05,0,0,0,1-.71,0.8,0.8,0,0,0,0-.25V70.73Z" transform="translate(0 -10.78)"/>
          <path class="cls-1" d="M161.28,69.8c0-.44,0-0.8,0-1.15h0.68l0,0.7h0a1.56,1.56,0,0,1,1.4-.8,1.54,1.54,0,0,1,1.5,1.81v2.53h-0.77V70.45a1,1,0,0,0-1-1.25,1.1,1.1,0,0,0-1,.79,1.11,1.11,0,0,0-.05.36v2.55h-0.77V69.8Z" transform="translate(0 -10.78)"/>
          <path class="cls-1" d="M169.17,72.74A2.84,2.84,0,0,1,168,73a2,2,0,0,1-2.11-2.16,2.16,2.16,0,0,1,2.28-2.25,2.57,2.57,0,0,1,1.07.22l-0.17.6a1.79,1.79,0,0,0-.89-0.2,1.6,1.6,0,0,0,0,3.19,2.2,2.2,0,0,0,.95-0.21Z" transform="translate(0 -10.78)"/>
          <path class="cls-1" d="M170.93,67.46a0.48,0.48,0,0,1-1,0,0.47,0.47,0,0,1,.48-0.48A0.46,0.46,0,0,1,170.93,67.46Zm-0.86,5.43V68.65h0.77v4.24h-0.77Z" transform="translate(0 -10.78)"/>
          <path class="cls-1" d="M174.47,72.89l-0.06-.53h0a1.58,1.58,0,0,1-1.3.63,1.21,1.21,0,0,1-1.3-1.22c0-1,.91-1.59,2.55-1.58V70.11a0.87,0.87,0,0,0-1-1,2.11,2.11,0,0,0-1.1.32l-0.18-.51a2.63,2.63,0,0,1,1.39-.38,1.5,1.5,0,0,1,1.61,1.74v1.59a6,6,0,0,0,.07,1h-0.7Zm-0.11-2.16c-0.84,0-1.8.13-1.8,1a0.68,0.68,0,0,0,.73.74,1.05,1.05,0,0,0,1-.71,0.8,0.8,0,0,0,0-.25V70.73Z" transform="translate(0 -10.78)"/>
        </g>
      </g>
    </g>
    <rect class="cls-1" x="33.3" y="34.07" width="25.12" height="0.75"/>
  </g>
</svg>
